<svg width="470" height="466" viewBox="0 0 470 466" fill="none" xmlns="http://www.w3.org/2000/svg">
<path d="M140.817 392.69C140.948 385.091 141.521 377.655 142.529 370.379C150.467 370.652 157.978 371.178 164.84 372.091C164.588 379.553 164.017 386.99 163.128 394.402C155.891 394.272 148.44 393.671 140.817 392.69Z" fill="#23286B"/>
<path d="M71.2786 173.673L81.6436 161.662L93.6657 172.009L83.2998 184.019L71.2786 173.673Z" fill="#A1C3FC"/>
<path d="M23.6006 274.057L51.8251 241.354L84.5572 269.527L56.3325 302.231L23.6006 274.057Z" fill="#E94A47"/>
<path d="M41.173 418.267L69.3967 385.564L102.13 413.737L73.905 446.441L41.173 418.267Z" fill="#1D72D8"/>
<path d="M42.1758 349.823C42.331 349.282 42.7548 348.826 43.3381 348.65C87.9673 335.374 120.76 290.305 119.632 243.817C119.609 242.864 120.358 242.083 121.308 242.061C122.258 242.036 123.044 242.786 123.065 243.734C124.237 291.717 90.3796 338.237 44.3156 351.945C43.4063 352.214 42.4503 351.697 42.1808 350.793C42.0828 350.461 42.0878 350.13 42.1758 349.823Z" fill="#23286B"/>
<path d="M10.9413 393.477L15.983 362.651L44.6891 366.927L39.6474 397.752L10.9413 393.477Z" fill="#D9E021"/>
<path d="M404.995 107.604C399.327 101.191 389.532 100.587 383.119 106.255C376.705 111.923 376.101 121.718 381.769 128.131C387.438 134.545 397.232 135.149 403.646 129.481C410.059 123.812 410.663 114.018 404.995 107.604Z" fill="#D9E021"/>
<path d="M348.733 368.652L334.218 375.176L340.743 389.691L355.257 383.166L348.733 368.652Z" fill="#A1C3FC"/>
<path d="M316.792 248.087L277.273 265.851L295.037 305.371L334.557 287.606L316.792 248.087Z" fill="#E94A47"/>
<path d="M457.385 165.217L430.496 177.304L442.583 204.193L469.472 192.106L457.385 165.217Z" fill="#1D72D8"/>
<path d="M380.198 278.655C380.629 279.143 380.763 279.852 380.485 280.489C361.174 324.629 310.67 352.566 263.014 345.477C262.073 345.339 261.427 344.462 261.563 343.518C261.702 342.578 262.581 341.929 263.522 342.068C309.691 348.936 358.619 321.868 377.33 279.103C377.711 278.234 378.728 277.835 379.597 278.216C379.835 278.324 380.038 278.475 380.198 278.655Z" fill="#23286B"/>
<path d="M352.027 151.227C352.326 151.565 352.494 152.019 352.454 152.504C352.378 153.449 351.549 154.159 350.598 154.081C316.039 151.315 285.657 119.711 284.276 85.0624C284.237 84.1083 284.974 83.3096 285.926 83.2736C286.882 83.2328 287.676 83.9793 287.715 84.9238C289.039 117.922 317.963 148.016 350.875 150.646C351.336 150.689 351.742 150.904 352.027 151.227Z" fill="#23286B"/>
<path d="M79.8415 161.884L175.69 91.7162L74.1796 27.2867L79.8415 161.884ZM163.535 92.1224L86.154 148.773L81.5832 40.1084L163.535 92.1224Z" fill="#E94A47"/>
<path d="M229.494 416.446C236.165 418.132 243.521 416.85 249.371 412.328C259.459 404.525 261.31 389.986 253.495 379.915L202.229 313.863C198.456 309.001 192.988 305.898 186.845 305.118C180.696 304.339 174.628 305.985 169.758 309.751C159.669 317.554 157.818 332.093 165.634 342.164L216.9 408.217C220.185 412.445 224.659 415.223 229.494 416.446ZM187.978 312.142C191.408 313.008 194.58 314.977 196.907 317.977L248.173 384.029C250.845 387.471 252.011 391.766 251.456 396.122C250.901 400.479 248.699 404.346 245.25 407.013C238.093 412.547 227.77 411.24 222.223 404.1L170.959 338.047C168.286 334.605 167.121 330.31 167.675 325.954C168.23 321.596 170.433 317.73 173.882 315.064C178.03 311.853 183.247 310.946 187.978 312.142Z" fill="#A6BFFF"/>
<path d="M140.425 349.433C187.923 349.433 226.427 310.236 226.427 261.884C226.427 213.532 187.923 174.335 140.425 174.335C92.9276 174.335 54.4232 213.532 54.4232 261.884C54.4232 310.236 92.9276 349.433 140.425 349.433Z" fill="url(#paint0_linear)"/>
<path d="M163.048 173.741H151.186V226.796L163.048 238.492V173.741Z" fill="white"/>
<path d="M141.019 173.741H129.156V205.1L141.019 216.796V173.741Z" fill="white"/>
<path d="M118.989 173.741H107.974V183.403L118.989 195.099V173.741Z" fill="white"/>
<path d="M205.414 173.741H194.399V270.189L205.414 281.462V173.741Z" fill="white"/>
<path d="M215.581 291.377L225.749 301.378V173.741H215.581V291.377Z" fill="white"/>
<path d="M184.231 173.741H172.369V248.493L184.231 260.189V173.741Z" fill="white"/>
<path d="M115.043 310.921H271.63L173.434 110.067H16.8473L115.043 310.921Z" fill="#23286B"/>
<path d="M122.076 295.171L244.717 282.83L169.067 125.817H39.2815L122.076 295.171Z" fill="#428DFC"/>
<path d="M121.62 328.302L305.503 338.301V309.963L113.388 308.188V319.64C113.388 324.281 117.016 328.107 121.62 328.302Z" fill="#0E1B60"/>
<path d="M304.931 338.206L392.123 316.087C396.008 315.168 398.755 311.667 398.755 307.642V293.002L304.931 309.863V338.206Z" fill="#000E5E"/>
<path d="M261.705 290.334L399.392 293.024L304.897 309.941L113.388 308.184L261.705 290.334Z" fill="#453E6C"/>
<path d="M127.289 215.399C143.888 255.008 165.026 283.899 174.502 279.928C183.978 275.957 178.203 240.627 161.603 201.017C145.004 161.408 123.866 132.517 114.39 136.488C104.914 140.459 110.689 175.789 127.289 215.399Z" fill="url(#paint1_linear)"/>
<path opacity="0.51" d="M133.049 170.211C133.056 170.313 133.145 170.391 133.247 170.384C133.349 170.377 133.427 170.287 133.42 170.186C133.413 170.083 133.323 170.005 133.221 170.012C133.119 170.02 133.043 170.108 133.049 170.211ZM137.588 169.866C137.599 169.972 137.688 170.051 137.794 170.05C137.897 170.037 137.971 169.945 137.96 169.842C137.959 169.745 137.88 169.666 137.782 169.666C137.775 169.666 137.768 169.667 137.76 169.668C137.658 169.674 137.581 169.764 137.588 169.866ZM141.769 187.211C141.698 187.29 141.707 187.411 141.785 187.48C141.855 187.546 141.966 187.543 142.031 187.473C142.036 187.468 142.042 187.461 142.046 187.454C142.114 187.379 142.11 187.264 142.037 187.195C141.959 187.125 141.839 187.132 141.769 187.211ZM136.636 161.017C136.604 161.112 136.654 161.215 136.75 161.249C136.846 161.28 136.949 161.23 136.982 161.135C137.016 161.039 136.963 160.935 136.868 160.902C136.779 160.867 136.677 160.91 136.642 160.999C136.638 161.005 136.636 161.01 136.636 161.017ZM137.906 178.318C137.816 178.372 137.781 178.484 137.823 178.579C137.871 178.674 137.988 178.711 138.084 178.663C138.179 178.614 138.216 178.497 138.167 178.401C138.113 178.312 138.001 178.277 137.906 178.318ZM141.968 176.262C141.878 176.312 141.845 176.426 141.895 176.517C141.933 176.608 142.038 176.652 142.131 176.614C142.136 176.611 142.14 176.61 142.145 176.607C142.237 176.557 142.274 176.442 142.228 176.346C142.175 176.256 142.063 176.221 141.968 176.262ZM120.758 148.578C120.683 148.758 120.767 148.966 120.948 149.041C120.951 149.044 120.956 149.044 120.959 149.046C121.137 149.119 121.342 149.033 121.415 148.855C121.415 148.854 121.415 148.853 121.415 148.852C121.49 148.673 121.406 148.465 121.225 148.389C121.222 148.387 121.217 148.386 121.214 148.384C121.036 148.311 120.831 148.397 120.758 148.575C120.757 148.577 120.757 148.577 120.758 148.578ZM128.761 151.819C128.687 152.003 128.773 152.213 128.958 152.289C129.143 152.366 129.352 152.277 129.428 152.092C129.428 152.09 129.43 152.089 129.43 152.086C129.503 151.908 129.417 151.703 129.239 151.63C129.238 151.629 129.237 151.63 129.236 151.629C129.051 151.556 128.843 151.64 128.761 151.819ZM113.278 181.533C113.098 181.613 113.016 181.823 113.093 182.005C113.161 182.183 113.359 182.272 113.537 182.205C113.543 182.203 113.549 182.201 113.554 182.198C113.734 182.118 113.816 181.907 113.74 181.726C113.665 181.544 113.459 181.459 113.278 181.533ZM129.174 174.789C128.994 174.865 128.91 175.069 128.984 175.25C128.986 175.254 128.987 175.257 128.99 175.261C129.058 175.439 129.256 175.528 129.434 175.461C129.44 175.459 129.446 175.457 129.451 175.454C129.631 175.37 129.716 175.162 129.647 174.974C129.564 174.795 129.354 174.713 129.174 174.789ZM137.112 171.416C136.931 171.494 136.848 171.706 136.927 171.888C137.006 172.071 137.218 172.153 137.399 172.075C137.579 172 137.665 171.795 137.591 171.614C137.518 171.43 137.31 171.339 137.126 171.412C137.12 171.412 137.116 171.414 137.112 171.416ZM113.335 163.055C113.343 163.251 113.508 163.403 113.704 163.395C113.899 163.388 114.051 163.223 114.043 163.027C114.035 162.835 113.877 162.684 113.684 162.687C113.488 162.695 113.332 162.858 113.335 163.055ZM121.973 162.985C121.98 163.181 122.145 163.333 122.341 163.326C122.537 163.319 122.688 163.153 122.681 162.957C122.673 162.765 122.514 162.615 122.322 162.617C122.125 162.624 121.97 162.788 121.973 162.985ZM130.6 162.922C130.608 163.123 130.777 163.278 130.977 163.27C131.171 163.263 131.324 163.106 131.327 162.913C131.331 162.712 131.17 162.547 130.97 162.544C130.769 162.54 130.605 162.701 130.601 162.901C130.599 162.909 130.599 162.916 130.6 162.922ZM126.105 193.371C125.97 193.515 125.973 193.741 126.116 193.879C126.253 194.016 126.473 194.015 126.61 193.879C126.61 193.878 126.612 193.877 126.612 193.876C126.753 193.749 126.764 193.533 126.638 193.392C126.632 193.386 126.626 193.379 126.619 193.371C126.474 193.238 126.251 193.239 126.105 193.371ZM138.21 181.054C138.074 181.186 138.07 181.402 138.201 181.538C138.204 181.541 138.209 181.546 138.213 181.549C138.348 181.691 138.572 181.696 138.715 181.562C138.72 181.558 138.723 181.554 138.728 181.55C138.866 181.407 138.862 181.181 138.72 181.043C138.577 180.905 138.35 180.909 138.213 181.051C138.212 181.053 138.21 181.054 138.21 181.054ZM113.481 154.578C113.466 154.752 113.595 154.906 113.768 154.924C113.942 154.939 114.096 154.811 114.114 154.637C114.13 154.461 114.001 154.308 113.827 154.291C113.653 154.276 113.499 154.404 113.481 154.578ZM121.159 155.254C121.145 155.428 121.274 155.582 121.446 155.6C121.62 155.621 121.779 155.498 121.8 155.324C121.821 155.15 121.698 154.99 121.524 154.969C121.517 154.968 121.511 154.968 121.504 154.967C121.333 154.947 121.18 155.071 121.16 155.24C121.161 155.244 121.161 155.249 121.159 155.254ZM128.949 155.729C128.884 155.775 128.844 155.849 128.84 155.931C128.825 156.105 128.954 156.259 129.127 156.277C129.306 156.294 129.464 156.165 129.482 155.985C129.483 155.983 129.483 155.983 129.483 155.981C129.492 155.876 129.449 155.772 129.367 155.703L129.359 155.692C129.314 155.652 129.255 155.631 129.195 155.636C129.102 155.623 129.008 155.657 128.949 155.729ZM123.384 185.335C123.251 185.456 123.235 185.658 123.348 185.798C123.457 185.929 123.65 185.947 123.781 185.839C123.785 185.836 123.787 185.833 123.791 185.83C123.928 185.72 123.949 185.52 123.838 185.384C123.837 185.382 123.836 185.381 123.834 185.379C123.719 185.249 123.522 185.229 123.384 185.335ZM135.189 175.425C135.052 175.535 135.031 175.735 135.141 175.872C135.142 175.874 135.143 175.875 135.145 175.877C135.246 176.008 135.435 176.031 135.566 175.93C135.574 175.924 135.582 175.916 135.589 175.909C135.725 175.799 135.747 175.599 135.637 175.462C135.636 175.46 135.634 175.459 135.633 175.457C135.517 175.331 135.322 175.316 135.189 175.425ZM141.077 170.473C140.945 170.591 140.933 170.794 141.052 170.927C141.166 171.056 141.363 171.071 141.496 170.96C141.625 170.844 141.645 170.648 141.54 170.508C141.419 170.376 141.217 170.36 141.077 170.473ZM118.999 168.991C118.833 169.049 118.744 169.229 118.798 169.396C118.851 169.563 119.027 169.656 119.192 169.604C119.358 169.548 119.455 169.372 119.41 169.202C119.353 169.033 119.17 168.938 118.999 168.991ZM126.354 166.68C126.192 166.725 126.095 166.894 126.141 167.056C126.142 167.062 126.145 167.069 126.146 167.074C126.198 167.241 126.374 167.334 126.539 167.281C126.706 167.226 126.802 167.05 126.757 166.88C126.701 166.715 126.52 166.626 126.354 166.68ZM133.702 164.359C133.536 164.412 133.446 164.59 133.498 164.755C133.551 164.919 133.725 165.011 133.889 164.961C134.055 164.911 134.151 164.736 134.1 164.568C134.05 164.4 133.875 164.305 133.708 164.356C133.706 164.357 133.705 164.358 133.702 164.359ZM141.163 185.091C141.083 185.247 141.142 185.442 141.297 185.527C141.458 185.605 141.651 185.539 141.729 185.378C141.802 185.224 141.746 185.041 141.599 184.956C141.449 184.871 141.257 184.922 141.172 185.072C141.169 185.08 141.165 185.086 141.163 185.091ZM132.988 165.277C132.898 165.327 132.865 165.441 132.915 165.531C132.964 165.622 133.078 165.654 133.169 165.605C133.259 165.555 133.291 165.441 133.242 165.351C133.192 165.26 133.079 165.228 132.988 165.277ZM136.959 163.068C136.871 163.124 136.843 163.24 136.894 163.332C136.944 163.423 137.058 163.454 137.148 163.405C137.236 163.361 137.272 163.254 137.228 163.164C137.225 163.159 137.223 163.157 137.221 163.152C137.173 163.058 137.059 163.02 136.964 163.065C136.963 163.066 136.96 163.066 136.959 163.068ZM132.332 155.691C132.351 155.79 132.44 155.861 132.54 155.857C132.64 155.848 132.715 155.759 132.707 155.657C132.707 155.654 132.706 155.651 132.706 155.646C132.699 155.548 132.614 155.473 132.515 155.478C132.509 155.479 132.504 155.479 132.498 155.48C132.394 155.495 132.32 155.588 132.332 155.691ZM140.696 170.864C140.631 170.945 140.643 171.061 140.723 171.126C140.803 171.19 140.92 171.179 140.985 171.099C141.051 171.028 141.047 170.918 140.977 170.853C140.972 170.847 140.965 170.841 140.958 170.838C140.881 170.773 140.765 170.783 140.7 170.86C140.699 170.861 140.698 170.862 140.696 170.864ZM125.229 145.503C125.217 145.615 125.3 145.717 125.412 145.729C125.414 145.729 125.416 145.73 125.419 145.73C125.535 145.745 125.639 145.665 125.655 145.551C125.655 145.545 125.656 145.539 125.656 145.534C125.668 145.421 125.586 145.319 125.474 145.307C125.472 145.307 125.469 145.307 125.467 145.306C125.347 145.297 125.243 145.384 125.229 145.503ZM131.67 166.292C131.581 166.356 131.564 166.482 131.629 166.57C131.633 166.577 131.639 166.583 131.645 166.59C131.721 166.678 131.854 166.69 131.943 166.616C132.03 166.537 132.045 166.407 131.979 166.309C131.9 166.218 131.762 166.21 131.67 166.292C131.672 166.29 131.672 166.29 131.67 166.292ZM135.67 162.985C135.58 163.064 135.57 163.202 135.652 163.292L135.653 163.293C135.729 163.382 135.862 163.394 135.951 163.319C136.038 163.24 136.053 163.11 135.986 163.013C135.904 162.924 135.768 162.911 135.67 162.985ZM128.949 155.729C128.944 155.759 128.945 155.79 128.951 155.821C128.984 155.932 129.102 155.996 129.212 155.963C129.215 155.963 129.216 155.963 129.219 155.962C129.329 155.927 129.392 155.815 129.366 155.704L129.358 155.694C129.325 155.582 129.207 155.519 129.097 155.551C129.094 155.552 129.091 155.553 129.09 155.552C129.009 155.574 128.953 155.645 128.949 155.729ZM141.456 171.129C141.401 171.232 141.441 171.362 141.544 171.418C141.547 171.418 141.549 171.421 141.55 171.42C141.652 171.474 141.778 171.435 141.831 171.332C141.891 171.236 141.862 171.111 141.767 171.049C141.762 171.046 141.758 171.045 141.754 171.041C141.65 170.986 141.517 171.023 141.456 171.129ZM106.121 158.156C105.93 158.227 105.828 158.434 105.889 158.629C105.952 158.823 106.158 158.929 106.351 158.868C106.543 158.799 106.646 158.589 106.582 158.395C106.521 158.201 106.314 158.094 106.121 158.156ZM114.583 155.398C114.39 155.46 114.284 155.667 114.345 155.86C114.407 156.053 114.614 156.16 114.807 156.099C115 156.037 115.106 155.83 115.045 155.637C114.983 155.445 114.777 155.339 114.583 155.398ZM123.038 152.632C122.846 152.701 122.743 152.91 122.806 153.105C122.876 153.295 123.086 153.393 123.275 153.325C123.464 153.257 123.563 153.045 123.494 152.857C123.429 152.671 123.226 152.571 123.038 152.632ZM134.325 178.899C134.237 179.081 134.306 179.299 134.484 179.396C134.666 179.489 134.887 179.418 134.981 179.237C135.074 179.055 135.003 178.833 134.821 178.74C134.64 178.649 134.419 178.719 134.325 178.899ZM138.349 170.958C138.259 171.139 138.329 171.36 138.508 171.455C138.695 171.543 138.917 171.47 139.014 171.288C139.101 171.1 139.019 170.88 138.833 170.794C138.654 170.711 138.441 170.783 138.349 170.958ZM124.896 165.906C124.74 166.04 124.723 166.275 124.856 166.431C124.856 166.431 124.856 166.431 124.857 166.431C124.987 166.581 125.215 166.597 125.364 166.467C125.52 166.339 125.541 166.109 125.413 165.952C125.285 165.795 125.055 165.774 124.899 165.902C124.898 165.903 124.896 165.904 124.896 165.906ZM131.648 160.115C131.494 160.242 131.471 160.47 131.597 160.624C131.599 160.626 131.6 160.628 131.602 160.63C131.731 160.789 131.965 160.815 132.125 160.686C132.284 160.557 132.31 160.323 132.18 160.162C132.051 160.003 131.817 159.976 131.657 160.106C131.653 160.11 131.65 160.113 131.648 160.115ZM120.095 162.704C119.936 162.833 119.911 163.067 120.039 163.227C120.166 163.379 120.391 163.407 120.551 163.291C120.709 163.159 120.738 162.928 120.618 162.761C120.485 162.605 120.256 162.58 120.095 162.704ZM127.06 157.218C126.901 157.348 126.876 157.581 127.004 157.741C127.127 157.9 127.357 157.929 127.516 157.805C127.675 157.682 127.703 157.452 127.58 157.293C127.454 157.134 127.224 157.101 127.06 157.218ZM117.681 147.09C117.489 147.147 117.38 147.347 117.434 147.539C117.435 147.539 117.434 147.541 117.435 147.541C117.487 147.738 117.687 147.855 117.883 147.805C118.078 147.746 118.191 147.543 118.139 147.345C118.079 147.153 117.877 147.04 117.681 147.09ZM126.226 144.697C126.03 144.748 125.914 144.949 125.965 145.145C126.016 145.341 126.217 145.457 126.413 145.406C126.415 145.405 126.419 145.405 126.422 145.403C126.615 145.343 126.729 145.141 126.678 144.943C126.622 144.75 126.421 144.641 126.23 144.695C126.227 144.697 126.227 144.697 126.226 144.697ZM129.696 176.546C129.601 176.727 129.667 176.952 129.844 177.05C130.02 177.147 130.241 177.085 130.337 176.909C130.441 176.74 130.388 176.519 130.22 176.416C130.215 176.413 130.212 176.41 130.206 176.408C130.031 176.303 129.805 176.36 129.701 176.537C129.699 176.539 129.697 176.542 129.696 176.546ZM134.032 168.808C133.937 168.989 134.003 169.213 134.181 169.312C134.357 169.409 134.578 169.346 134.674 169.17C134.778 169.002 134.725 168.781 134.557 168.678C134.552 168.675 134.548 168.672 134.543 168.67C134.368 168.565 134.14 168.623 134.038 168.798C134.037 168.801 134.035 168.804 134.032 168.808ZM126.85 161.406C126.753 161.524 126.77 161.699 126.889 161.797C127.005 161.891 127.173 161.877 127.272 161.765C127.37 161.657 127.361 161.489 127.254 161.39C127.247 161.384 127.239 161.377 127.232 161.372C127.116 161.28 126.946 161.294 126.85 161.406ZM131.118 156.273C131.02 156.392 131.039 156.569 131.158 156.666C131.277 156.763 131.454 156.745 131.551 156.627C131.649 156.511 131.634 156.337 131.519 156.24C131.516 156.237 131.514 156.236 131.511 156.233C131.39 156.138 131.217 156.157 131.118 156.273ZM120.999 148.455C120.867 148.528 120.816 148.696 120.887 148.829C120.966 148.958 121.126 149.007 121.261 148.941C121.395 148.87 121.447 148.704 121.375 148.569C121.374 148.569 121.374 148.569 121.374 148.567C121.308 148.436 121.149 148.38 121.018 148.445C121.01 148.449 121.005 148.452 120.999 148.455ZM126.92 145.337C126.785 145.412 126.732 145.579 126.798 145.719C126.868 145.854 127.036 145.905 127.17 145.833C127.17 145.832 127.17 145.832 127.172 145.833C127.305 145.768 127.36 145.61 127.296 145.477C127.294 145.473 127.293 145.471 127.29 145.468C127.225 145.329 127.061 145.27 126.923 145.335C126.923 145.336 126.921 145.337 126.92 145.337Z" fill="white"/>
<path d="M393.12 342.926C388.296 345.508 384.74 344.06 379.765 344.817C373.137 345.825 375.232 349.785 375.53 355.281C376.023 364.358 374.516 373.607 375.739 382.239C379.692 379.842 381.57 376.459 383.085 372.272C384.848 367.398 385.74 366.377 390.238 363.73C394.165 361.42 397.663 358.914 401.731 356.874C405.465 355.002 410.967 353.774 413.813 350.843C411.669 346.553 411.516 342.081 410.668 337.592C404.946 338.482 398.364 343.157 393.12 342.926Z" fill="#FFBEB6"/>
<path d="M382.539 344.337C377.267 343.571 366.727 342.565 366.27 344.455C366.325 351.495 365.928 362.489 365.965 370.314C366.005 378.888 365.97 388.18 366.425 396.308C366.71 401.383 381.759 388.891 382.206 369.722C382.296 365.838 382.491 363.615 382.425 359.043C382.355 354.25 382.195 346.089 382.539 344.337Z" fill="#428DFC"/>
<path d="M398.153 265.515C396.534 266.807 391 270.847 390.321 270.351C388.452 268.623 389.854 267.647 391.295 266.464C390.236 266.696 387.441 267.168 387.771 265.327C387.922 264.486 391.099 262.533 391.665 261.897C393.488 259.845 393.582 259.133 395.735 261.179C396.775 262.167 398.305 264.484 398.153 265.515Z" fill="#F2A19C"/>
<path d="M349.934 240.395C353.852 242.315 357.44 244.54 361.819 245.969C367.046 247.673 372.463 248.801 377.738 250.353C383.002 251.902 389.986 252.532 394.761 255.196C397.086 256.494 397.129 258.904 398.226 261.434C399.233 263.757 400.642 265.957 401.781 268.174C402.473 269.521 404.485 271.98 404.403 273.486C404.188 277.459 401.459 273.093 400.629 271.796C399.444 269.94 398.159 268.2 397.124 266.24C396.19 264.474 395.272 261.338 393.548 260.244C392.339 259.478 388.927 258.434 387.491 258.33C385.288 258.17 370.366 261.561 368.349 260.443C366.303 259.309 360.07 259.671 357.688 259.719C354.074 259.79 347.052 257.617 345.561 256.103C344.703 255.232 344.012 253.911 343.149 252.962C341.2 250.816 340.145 248.442 339.454 245.643C338.843 243.166 337.821 240.446 339.265 238.463C340.511 236.754 343.732 235.144 345.766 234.87C346.526 236.364 348.616 239.748 349.934 240.395Z" fill="url(#paint2_linear)"/>
<path d="M436.599 297.133H401.292L423.433 252.396H458.74L436.599 297.133Z" fill="#A1C3FC"/>
<path d="M435.014 293.625L407.361 290.876L424.418 255.905H453.682L435.014 293.625Z" fill="#428DFC"/>
<path d="M412.272 438.611C414.843 443.43 413.374 446.968 414.113 451.931C415.097 458.541 419.078 456.47 424.594 456.196C433.701 455.741 442.974 457.282 451.639 456.101C449.25 452.149 445.865 450.263 441.67 448.736C436.788 446.958 435.768 446.064 433.132 441.57C430.83 437.646 428.331 434.148 426.301 430.085C424.438 426.356 423.23 420.866 420.302 418.017C415.989 420.136 411.502 420.27 406.995 421.097C407.863 426.803 412.525 433.385 412.272 438.611Z" fill="#FFBEB6"/>
<path d="M359.855 273.622C358.468 277.415 359.104 278.91 359.626 282.825C360.427 288.827 361.849 288.954 368.026 289.91C380.993 291.919 395.778 295.203 408.734 297.639C418.861 299.544 435.022 303.049 439.483 314.115C443.507 324.101 432.696 336.256 425.745 342.487C416.468 350.804 405.81 357.238 396.855 365.916C391.112 371.483 382.711 380.787 379.859 388.161C380.787 382.64 378.226 374.303 377.375 368.58C376.328 361.546 375.611 355.767 379.01 349.086C380.377 346.397 384.793 342.27 387.102 340.343C390.681 337.356 386.502 332.573 389.914 331.212C400.817 326.865 397.265 327.923 402.575 324.399C400.22 330.119 381.478 325.367 376.425 324.354C367.52 322.57 358.533 322.349 349.699 320.493C344.964 319.498 339.565 318.971 336.443 314.647C333.6 310.709 329.389 304.79 328.321 300.262C325.588 288.682 326.895 277.851 327.33 266.189C336.357 271.77 349.875 270.139 360.259 272.899C359.359 272.044 361.009 274.134 359.855 273.622Z" fill="#151A4F"/>
<path d="M320.301 260.301C317.419 267.867 319.167 281.223 320.806 289.618C322.96 300.646 328.328 307.287 335.282 315.7C347.334 330.279 369.814 347.41 372.028 367.397C373.107 377.13 373.788 385.52 379.231 394.331C384.405 402.71 392.644 405.651 393.387 416.153C394.13 426.643 396.295 439.663 405.564 444.875C405.564 444.875 425.846 445.663 435.153 444.612C430.412 435.86 425.665 424.424 421.977 417.066C417.422 407.98 413.452 398.714 410.247 389.214C403.676 369.737 402.101 345.495 390.868 327.85C386.487 320.967 380.505 315.057 374.821 309.316C371.914 306.381 369.124 303.563 366.843 300.302C364.286 296.646 363.524 294.855 361.886 290.554C358.364 281.302 356.002 269.763 358.717 260.393C345.908 260.425 333.02 260.785 320.422 259.809C320.895 258.896 319.785 261.191 320.301 260.301Z" fill="url(#paint3_linear)"/>
<path d="M336.868 190.501C328.306 196.842 326.959 203.44 323.911 213.398C318.368 231.5 313.902 253.512 302.346 268.822C314.48 282.384 338.207 283.03 354.51 280.547C360.408 279.65 370.288 277.672 370.288 277.672C370.288 277.672 362.302 262.182 361.486 257.133C359.792 246.644 359.786 237.687 360.952 227.294C361.955 218.342 362.984 209.515 364.547 201.04C365.982 193.256 363.34 186.608 353.084 185.565C347.791 185.028 341.815 186.836 336.868 190.501Z" fill="url(#paint4_linear)"/>
<path d="M366.804 177.182C363.178 181.284 357.93 184.358 353.628 186.359C355.236 190.688 360.652 194.756 365.441 196.193C368.479 191.91 371.868 192.929 375.195 188.906C371.474 185.886 369.22 182.482 367.645 177.849C367.583 179.433 366.234 175.658 366.804 177.182Z" fill="#F2A19C"/>
<path d="M413.642 449.164C412.852 454.415 411.799 464.918 413.692 465.381C420.753 465.356 431.781 465.797 439.631 465.793C448.232 465.789 457.554 465.864 465.708 465.443C470.801 465.181 458.332 450.127 439.104 449.601C435.209 449.495 432.978 449.292 428.392 449.339C423.586 449.388 415.398 449.515 413.642 449.164Z" fill="url(#paint5_linear)"/>
<path d="M435.116 301.004L391.771 302.836V296.524H436.973V299.075C436.973 300.109 436.154 300.961 435.116 301.004Z" fill="#8CB6F1"/>
<path d="M396.857 303.605L374.124 298.284C373.248 298.079 372.628 297.299 372.628 296.403V293.142L396.857 297.293V303.605Z" fill="#78A9EF"/>
<path d="M374.899 171.584C379.714 165.05 386.75 163.591 394.926 167.721C401.348 170.965 401.653 182.391 396.641 189.884C394.008 193.822 387.557 203.934 375.029 200.501C365.008 197.754 370.715 181.388 372.059 176.183C371.912 176.844 374.237 171.072 374.899 171.584Z" fill="url(#paint6_linear)"/>
<path d="M392.594 174.698C396.49 174.374 395.075 195.817 395.075 195.817L405.34 195.53C405.34 195.53 407.612 174.875 396.679 170.817C394.901 172.285 394.018 172.85 392.594 174.698Z" fill="#E94A47"/>
<path d="M407.605 195.363C407.588 195.363 407.573 195.363 407.556 195.362C407.291 195.335 407.095 195.1 407.121 194.834C407.834 187.544 403.222 175.108 397.347 171.887C397.113 171.758 397.027 171.465 397.156 171.231C397.286 170.996 397.58 170.913 397.815 171.041C404.146 174.512 408.833 187.289 408.088 194.928C408.062 195.176 407.851 195.363 407.605 195.363Z" fill="#E94A47"/>
<path d="M381.676 257.302C382.355 257.427 383.276 259.976 384.153 260.926C385.43 262.306 386.954 262.897 388.703 263.334C390.957 263.896 396.561 264.699 398.637 263.359C402.827 260.654 393.838 259.443 392.338 259.234C389.822 258.883 384.101 255.275 382.326 257.165C382.513 257.049 381.489 257.417 381.676 257.302Z" fill="#FFBEB6"/>
<path d="M403.53 292.548L372.485 293.147L393.791 296.915L436.973 296.523L403.53 292.548Z" fill="#C3D9FD"/>
<path d="M404.811 292.597C402.087 291.777 400.125 289.376 397.01 288.196C391.302 286.035 387.642 277.276 384.392 272.306C380.747 266.732 377.248 262.618 372.761 257.944C369.109 254.139 364.964 247.861 360.306 245.357C360.34 245.616 360.373 245.949 360.412 246.184C356.356 246.854 354.009 243.436 352.549 248.685C351.759 251.525 353.954 258.068 355.021 260.581C357.715 266.921 362.88 272.679 367.606 277.542C372.631 282.713 379.921 284.825 384.629 289.651C388.789 293.915 386.174 300.225 390.29 304.575C391.332 305.229 393.282 304.019 394.548 304.492C395.601 304.886 399.26 304.311 402.049 302.923C404.803 303.893 403.321 305.223 406.572 303.155C407.69 302.319 404.547 298.733 400.927 295.106C400.751 294.853 400.559 294.577 400.334 294.26C403.218 297.217 407.603 296.917 411.722 296.192C412.678 295.317 410.065 294.179 404.811 292.597Z" fill="url(#paint7_linear)"/>
<path d="M360.134 245.258C360.192 245.288 360.248 245.325 360.305 245.356C360.258 244.99 360.208 244.783 360.134 245.258Z" fill="url(#paint8_linear)"/>
<path d="M358.01 196.837C364.148 196.515 366.273 199.572 368.025 208.109C369.445 215.024 369.316 218 368.968 225.162C368.346 237.986 373.057 250.616 381.552 260.964C376.918 266.842 357.312 268.402 350.256 268.654C349.028 245.167 356.353 240.894 349.286 224.211C343.149 209.72 346.984 197.416 358.01 196.837Z" fill="#A1C3FC"/>
<path d="M399.46 172.088C394.762 158.037 372.826 160.967 366.572 168.341C359.055 177.204 360.055 197.601 360.62 208.618C363.564 209.322 383.486 208.93 383.486 208.93C383.486 208.93 381.023 192.682 384.603 186.646C385.787 184.65 395.697 186.633 397.648 184.537C400.907 181.035 398.572 172.309 399.46 172.088Z" fill="#E94A47"/>
<path d="M392.66 198.365C392.599 198.365 392.537 198.354 392.478 198.33C390.01 197.329 389.697 196.709 388.994 194.715C388.905 194.463 389.037 194.188 389.29 194.099C389.546 194.009 389.82 194.143 389.909 194.394C390.539 196.182 390.67 196.553 392.843 197.435C393.092 197.535 393.211 197.817 393.109 198.064C393.032 198.251 392.851 198.365 392.66 198.365Z" fill="#23286B"/>
<path d="M330.397 304.67C330.396 304.588 330.327 304.522 330.245 304.523C330.162 304.524 330.097 304.593 330.098 304.675C330.098 304.757 330.167 304.823 330.25 304.822C330.332 304.821 330.399 304.754 330.397 304.67ZM324.071 290.711C324.13 290.651 324.129 290.554 324.068 290.495C324.015 290.439 323.925 290.438 323.87 290.491C323.865 290.495 323.861 290.501 323.857 290.505C323.798 290.562 323.798 290.654 323.854 290.713C323.915 290.771 324.013 290.771 324.071 290.711ZM326.819 297.985C326.892 297.946 326.926 297.857 326.896 297.779C326.86 297.701 326.768 297.666 326.69 297.702C326.611 297.738 326.576 297.83 326.612 297.908C326.653 297.982 326.74 298.015 326.819 297.985ZM346.763 296.384C346.912 296.327 346.986 296.162 346.931 296.013C346.884 295.868 346.728 295.789 346.582 295.836C346.577 295.838 346.572 295.838 346.568 295.84C346.419 295.897 346.345 296.063 346.4 296.211C346.452 296.358 346.615 296.437 346.763 296.384ZM340.24 298.772C340.389 298.713 340.461 298.547 340.401 298.399C340.344 298.253 340.181 298.179 340.034 298.234C339.886 298.286 339.808 298.447 339.861 298.595C339.924 298.744 340.087 298.82 340.24 298.772ZM333.702 301.157C333.849 301.104 333.926 300.944 333.873 300.797C333.872 300.794 333.87 300.791 333.869 300.788C333.821 300.643 333.665 300.564 333.52 300.61C333.515 300.612 333.51 300.613 333.505 300.615C333.357 300.675 333.28 300.839 333.328 300.992C333.388 301.137 333.553 301.211 333.702 301.157ZM345.968 311.182C345.97 311.024 345.843 310.896 345.685 310.895C345.527 310.893 345.398 311.02 345.397 311.177C345.396 311.331 345.518 311.458 345.672 311.464C345.831 311.465 345.962 311.34 345.968 311.182ZM339.017 310.897C339.018 310.74 338.892 310.611 338.734 310.61C338.576 310.608 338.447 310.735 338.446 310.892C338.445 311.046 338.568 311.173 338.722 311.179C338.879 311.18 339.011 311.055 339.017 310.897ZM336.923 286.394C337.037 286.284 337.043 286.105 336.933 285.988C336.83 285.873 336.651 285.865 336.537 285.968C336.537 285.968 336.535 285.969 336.535 285.97C336.417 286.066 336.399 286.24 336.494 286.357C336.499 286.362 336.504 286.367 336.509 286.374C336.621 286.486 336.801 286.496 336.923 286.394ZM331.8 291.092C331.914 290.981 331.923 290.801 331.821 290.68C331.71 290.566 331.529 290.56 331.413 290.669C331.296 290.775 331.29 290.956 331.397 291.072C331.398 291.072 331.4 291.074 331.4 291.074C331.505 291.19 331.682 291.198 331.797 291.096C331.799 291.093 331.799 291.092 331.8 291.092ZM326.686 295.781C326.8 295.682 326.813 295.508 326.712 295.395C326.709 295.392 326.706 295.388 326.702 295.385C326.6 295.267 326.419 295.253 326.3 295.355C326.296 295.358 326.292 295.362 326.289 295.365C326.173 295.473 326.166 295.656 326.275 295.772C326.383 295.888 326.568 295.894 326.682 295.786C326.684 295.783 326.685 295.782 326.686 295.781ZM345.507 317.967C345.527 317.828 345.429 317.7 345.29 317.679C345.152 317.659 345.022 317.757 345.001 317.896C344.981 318.035 345.079 318.163 345.218 318.184C345.356 318.201 345.485 318.105 345.507 317.967ZM338.787 292.939C338.898 292.847 338.919 292.687 338.834 292.57C338.753 292.461 338.597 292.438 338.487 292.52C338.484 292.523 338.481 292.525 338.478 292.527C338.364 292.609 338.339 292.769 338.422 292.882C338.423 292.883 338.424 292.884 338.425 292.886C338.513 292.994 338.67 293.018 338.787 292.939ZM333.843 296.665C333.953 296.579 333.972 296.42 333.888 296.31C333.807 296.201 333.651 296.178 333.541 296.26C333.538 296.263 333.535 296.265 333.532 296.267C333.418 296.349 333.393 296.509 333.475 296.622C333.476 296.623 333.477 296.624 333.478 296.626C333.569 296.735 333.731 296.752 333.843 296.665ZM328.888 300.41C329.002 300.328 329.027 300.168 328.945 300.055L328.942 300.051C328.867 299.942 328.714 299.917 328.605 299.992C328.598 299.996 328.591 300.002 328.586 300.007C328.471 300.09 328.446 300.25 328.528 300.363C328.529 300.364 328.53 300.365 328.531 300.367C328.619 300.472 328.775 300.491 328.888 300.41ZM341.653 306.203C341.788 306.163 341.867 306.024 341.829 305.886C341.794 305.751 341.657 305.67 341.521 305.705C341.384 305.743 341.301 305.88 341.329 306.018C341.369 306.157 341.512 306.239 341.653 306.203ZM335.641 307.763C335.773 307.733 335.858 307.601 335.828 307.47C335.827 307.465 335.825 307.46 335.825 307.456C335.79 307.32 335.652 307.239 335.516 307.274C335.38 307.312 335.296 307.449 335.325 307.587C335.363 307.721 335.504 307.8 335.641 307.763ZM327.61 287.086C327.681 286.972 327.645 286.823 327.532 286.753C327.527 286.75 327.523 286.747 327.518 286.745C327.398 286.671 327.241 286.707 327.167 286.826C327.166 286.829 327.164 286.832 327.162 286.834C327.096 286.959 327.138 287.111 327.261 287.184C327.38 287.254 327.535 287.215 327.606 287.096C327.608 287.093 327.609 287.089 327.61 287.086ZM324.473 292.432C324.545 292.309 324.505 292.152 324.383 292.076C324.257 292.008 324.099 292.052 324.03 292.178C323.964 292.297 324.002 292.447 324.117 292.521C324.235 292.595 324.392 292.561 324.466 292.444C324.468 292.441 324.47 292.436 324.473 292.432ZM351.573 315.392C351.729 315.342 351.82 315.181 351.777 315.022C351.735 314.865 351.573 314.771 351.416 314.813C351.259 314.86 351.168 315.024 351.211 315.183C351.254 315.34 351.415 315.434 351.573 315.392ZM344.652 317.265C344.81 317.223 344.904 317.061 344.863 316.904C344.821 316.748 344.658 316.653 344.501 316.695C344.343 316.736 344.249 316.899 344.291 317.055C344.334 317.214 344.495 317.306 344.652 317.265ZM333.283 291.461C333.362 291.315 333.312 291.133 333.17 291.047C333.025 290.97 332.842 291.026 332.766 291.172C332.691 291.313 332.742 291.487 332.878 291.567C333.02 291.646 333.198 291.6 333.283 291.461ZM329.723 297.663C329.801 297.521 329.754 297.343 329.615 297.258C329.472 297.176 329.291 297.224 329.209 297.366C329.126 297.508 329.175 297.689 329.317 297.771C329.46 297.849 329.64 297.801 329.723 297.663ZM342.459 304.066C342.582 303.961 342.604 303.778 342.511 303.646C342.408 303.521 342.223 303.502 342.096 303.602C341.966 303.697 341.939 303.88 342.035 304.009C342.035 304.009 342.037 304.012 342.038 304.014C342.14 304.145 342.327 304.168 342.459 304.066ZM336.783 308.442C336.914 308.341 336.937 308.153 336.837 308.023V308.022C336.739 307.896 336.555 307.874 336.43 307.973C336.302 308.073 336.277 308.256 336.376 308.384C336.471 308.512 336.654 308.538 336.783 308.442ZM346.341 307.077C346.47 306.98 346.496 306.797 346.398 306.666C346.3 306.536 346.117 306.512 345.986 306.609C345.86 306.704 345.831 306.882 345.922 307.01C346.02 307.144 346.206 307.173 346.341 307.077ZM340.515 311.195C340.648 311.098 340.678 310.912 340.581 310.779C340.485 310.652 340.305 310.621 340.172 310.708C340.04 310.807 340.007 310.991 340.097 311.129C340.196 311.26 340.38 311.288 340.515 311.195ZM333.351 299.73C333.435 299.589 333.391 299.406 333.251 299.321C333.115 299.236 332.933 299.278 332.849 299.414C332.759 299.545 332.792 299.724 332.923 299.813C332.927 299.816 332.93 299.818 332.934 299.819C333.071 299.91 333.254 299.873 333.345 299.737C333.348 299.736 333.35 299.733 333.351 299.73Z" fill="white"/>
<mask id="mask0" mask-type="alpha" maskUnits="userSpaceOnUse" x="73" y="84" width="287" height="187">
<path d="M164.284 270.245L359.419 256.704L276.394 84.4264H73.4178L164.284 270.245Z" fill="#75115F"/>
</mask>
<g mask="url(#mask0)">
<path d="M289.866 223.216C290.261 223.44 290.787 223.183 291.015 222.792C291.243 222.401 291.252 221.924 291.255 221.47C291.28 217.786 290.654 214.613 290.679 210.928C290.683 210.258 290.197 208.673 289.538 208.797C288.879 213.819 289.015 217.595 288.092 222.576C288.596 217.884 289.029 214.479 288.134 209.845C288.006 209.18 287.821 208.474 287.308 208.031C285.587 210.178 285.454 213.156 285.471 215.908C285.487 218.66 285.524 221.598 284.034 223.912C286.19 225.364 289.431 224.854 291.038 222.809C291.249 224.394 289.656 221.633 289.866 223.216Z" fill="#F2A19C"/>
<path d="M261.962 192.06C262.803 190.704 264.37 190 265.877 189.472C269.124 188.339 272.528 187.676 275.954 187.379C276.422 187.338 276.959 187.329 277.284 187.668C277.599 187.994 277.576 188.545 277.34 188.931C277.103 189.318 276.701 189.571 276.293 189.773C274.43 190.696 272.282 190.787 270.204 190.861C268.305 190.928 266.406 190.997 264.507 191.064C267.918 191.052 271.329 191.289 274.706 191.771C276.135 191.976 277.752 192.357 278.431 193.633C277.028 194.739 275.028 194.496 273.267 194.197C270.041 193.649 266.813 192.996 263.571 192.551C262.564 192.412 261.273 192.103 260.279 192.101C259.535 192.098 257.223 194.113 257.017 194.017C256.014 193.552 257.744 194.932 256.741 194.467C257.828 193.424 259.607 193.99 260.978 194.614C264.655 196.287 268.333 197.959 272.008 199.631C272.556 199.879 273.131 200.134 273.732 200.104C274.332 200.074 274.959 199.658 275.013 199.059C274.109 198.63 273.205 198.202 272.3 197.773C268.78 196.105 265.26 194.435 261.741 192.768" fill="#F2A19C"/>
<path d="M291.896 212.681C292.809 207.429 292.854 206.845 297.374 205.069C295.646 209.24 295.262 213.454 295.644 217.954C295.733 219.011 295.88 220.101 295.561 221.112C295.321 221.873 293.97 222.928 293.494 223.567C292.183 225.325 289.852 228.291 289.386 228.135C287.331 227.45 274.158 227.175 272.951 227.222C263.394 227.582 266.053 228.542 256.558 229.691C257.314 227.904 257.394 225.841 256.781 223.999C263.584 223.357 270.307 221.861 276.741 219.558C280.383 221.476 284.402 222.675 288.499 223.065C288.695 221.268 291.449 220.632 291.743 218.848C291.854 218.181 291.781 213.344 291.896 212.681Z" fill="#FFBEB6"/>
<path d="M297.451 191.593L302.321 194.182L310.005 190.071L287.788 223.11L283.146 220.674L279.799 218.39L256.516 206.209L283.603 174.084L297.451 191.593Z" fill="#E94A47"/>
<path d="M281.626 217.171L298.821 194.485L281.228 175.592L260.854 203.925L281.626 217.171Z" fill="#EEEEEE"/>
<path d="M297.891 193.346L280.696 216.03L287.561 219.226L309.304 188.778L297.891 193.346Z" fill="#D6D7D8"/>
<path d="M276.71 217.454C282.203 214.338 284.24 209.816 290.299 208.036C291.239 207.759 292.446 207.68 292.907 208.692C293.284 209.514 292.91 210.496 292.165 211.005C288.578 213.463 288.639 213.322 285.505 215.802C282.623 218.082 278.209 221.365 279.237 224.894L262.341 230.944C263.423 229.582 263.281 227.658 263.185 225.922C263.089 224.185 263.211 222.184 264.579 221.111C265.402 220.465 266.494 220.315 267.529 220.167C270.709 219.709 273.919 219.039 276.71 217.454Z" fill="#FFBEB6"/>
<path d="M261.842 192.355C258.803 193.578 256.727 194.654 256.364 197.911C259.484 199.053 264.244 199.086 267.596 201.117C268.08 201.41 268.577 201.76 268.775 202.288C269.152 203.292 268.297 203.952 267.245 204.153C266.193 204.354 265.024 204.386 264.012 204.03C261.917 203.293 259.759 202.737 257.57 202.364C256.196 202.131 254.658 202.006 253.528 202.821C252.948 203.239 252.42 203.842 251.952 204.379C251.262 205.172 250.404 205.803 249.442 206.207C248.107 206.767 240.785 216.854 239.398 218.539C238.413 219.739 236.82 212.972 235.975 212.374C237.169 211.339 245.153 201.87 246.247 200.727C249.172 197.668 251.357 195.791 253.441 192.104C253.886 191.315 254.349 190.475 255.132 190.02C255.834 189.613 256.683 189.58 257.493 189.539C264.273 189.188 267.666 187.594 274.018 185.197C276.954 184.089 273.661 189.066 270.806 189.764C267.947 190.463 264.57 191.256 261.842 192.355Z" fill="#FFBEB6"/>
<path d="M243.963 203.241C233.167 214.214 222.403 221.399 214.975 227.791C211.657 212.204 209.528 199.198 209.203 183.264C209.1 178.205 209.137 172.794 206.333 168.584C203.529 164.373 196.607 162.585 193.493 166.57C191.504 169.117 191.891 172.721 192.379 175.915C193.308 182.018 194.238 188.12 195.168 194.223C197.386 208.784 199.624 223.423 204.205 237.42C204.662 238.814 205.223 240.309 206.463 241.094C207.159 241.534 207.991 241.694 208.805 241.813C213.888 242.557 216.783 240.67 221.593 238.869C232.346 234.843 234.742 231.679 241.224 222.198C244.76 217.026 251.973 213.334 252.75 210.322C251.956 210.046 246.751 203.831 243.963 203.241Z" fill="#1D72D8"/>
<path d="M204.14 177.162C205.721 173.893 207.929 172.608 209.952 169.592C210.752 168.399 212.08 166.969 213.25 166.136C215.809 164.317 219.158 164.974 222.278 165.328C218.952 162.285 214.681 154.223 212.539 150.255C211.322 153.3 209.034 155.633 207.287 157.585C204.46 160.744 200.698 162.882 197.008 164.966C199.354 165.727 201.055 167.818 202.059 170.072C203.061 172.324 203.49 174.782 204.14 177.162Z" fill="#F2A19C"/>
<path d="M109.063 207.808C112.259 207.808 131.889 196.845 131.889 196.845L144.9 220.369L127.324 232.473L109.063 207.808Z" fill="#E94A47"/>
<path d="M228.718 168.441C225.21 168.165 219.463 167.145 217.264 164.394C214.295 160.679 211.84 155.198 211.127 150.497C210.415 145.795 214.354 141.005 217.89 137.828C220.484 135.498 223.953 134.456 227.3 133.481C229.215 133.546 231.086 134.454 232.322 135.919C233.417 137.216 236.038 140.242 236.162 141.936C236.808 150.824 241.976 155.508 241.586 156.981C239.171 159.519 239.384 158.951 236.968 161.488C235.375 163.163 234.868 168.922 228.718 168.441Z" fill="#FFBEB6"/>
<path d="M239.229 146.3C219.848 143.229 224.37 165.044 211.127 154.214C205.152 139.512 214.94 133.44 222.917 132.077C224.11 131.873 226.349 131.264 229.376 132.077C231.799 132.725 234.336 134.585 235.191 135.473C237.425 137.795 238.906 143.392 239.229 146.3Z" fill="#E94A47"/>
<path d="M230.473 209.273C230.66 209.273 230.839 209.163 230.918 208.978C231.023 208.733 230.91 208.448 230.663 208.342C230.544 208.291 230.504 207.941 230.642 207.443L232.306 201.467C232.523 200.687 232.767 199.804 232.679 198.897C232.565 197.731 231.92 196.723 231.326 195.87C230.921 195.29 230.499 194.71 230.072 194.126C227.907 191.16 225.668 188.092 225.716 184.574C225.743 182.536 226.533 180.636 227.368 178.625C228.224 176.564 229.109 174.433 229.09 172.146C229.073 169.951 228.226 167.919 227.407 165.952C226.988 164.947 226.556 163.907 226.246 162.871C224.131 155.774 228.34 147.23 235.252 144.585C235.502 144.49 235.626 144.21 235.531 143.96C235.435 143.71 235.157 143.586 234.906 143.68C227.418 146.545 223.027 155.461 225.317 163.149C225.64 164.234 226.083 165.297 226.511 166.326C227.331 168.292 228.103 170.149 228.119 172.153C228.136 174.243 227.328 176.192 226.471 178.253C225.638 180.261 224.776 182.337 224.746 184.56C224.692 188.401 227.028 191.601 229.288 194.696C229.71 195.275 230.129 195.848 230.529 196.423C231.053 197.176 231.621 198.057 231.712 198.99C231.784 199.716 231.573 200.473 231.37 201.205L229.707 207.18C229.426 208.189 229.64 208.956 230.281 209.231C230.345 209.26 230.409 209.273 230.473 209.273Z" fill="#E94A47"/>
<path d="M165.921 143.615C169.898 143.609 173.84 141.843 176.494 138.88C177.516 137.738 178.393 136.397 179.733 135.652C183.228 133.709 187.227 136.742 190.753 138.625C199.759 143.43 211.88 141.017 217.771 133.209C216.205 127.131 208.588 123.471 202.867 126.049C198.549 127.995 195.639 132.692 190.999 133.636C184.672 134.925 179.094 128.616 172.64 128.451C163.825 128.227 157.516 139.271 148.736 138.447C146.716 138.259 144.802 137.425 142.787 137.199C138.085 136.673 133.248 139.96 132.002 144.526C128.569 142.896 114.71 139.993 114.71 139.993C114.71 139.993 114.618 147.356 115.195 149.205C116.451 153.229 117.638 153.361 115.837 157.173C118.691 159.166 122.472 156.396 124.47 153.544C126.468 150.692 128.737 147.148 132.216 147.25C134.214 147.309 136.001 148.647 137.998 148.737C141.951 148.913 144.369 144.479 147.869 142.634C153.299 139.77 159.782 143.625 165.921 143.615Z" fill="#E94A47"/>
<path d="M118.64 160.969C121.332 160.646 124.352 160.282 127.527 155.433C128.237 154.348 128.593 152.909 128.937 151.517C129.315 149.983 129.707 148.396 130.56 147.399C130.707 147.227 130.85 146.937 131.018 146.602C131.09 146.457 131.195 146.245 131.28 146.098C131.321 146.094 131.364 146.084 131.405 146.067C131.639 145.972 131.751 145.705 131.656 145.471C131.568 145.253 131.387 145.118 131.172 145.11C130.756 145.101 130.541 145.507 130.201 146.193C130.091 146.415 129.94 146.717 129.866 146.803C128.872 147.964 128.454 149.657 128.05 151.295C127.71 152.672 127.388 153.974 126.763 154.929C123.822 159.421 121.146 159.744 118.557 160.056L118.64 160.969Z" fill="#E94A47"/>
<path d="M219.31 193.627C219.384 193.627 219.457 193.61 219.528 193.575C219.767 193.454 219.864 193.164 219.745 192.924C217.963 189.368 216.199 185.281 217.816 181.812C218.129 181.143 218.552 180.536 219.001 179.893C219.536 179.128 220.089 178.336 220.441 177.426C221.405 174.93 220.645 172.343 219.91 169.841C219.353 167.947 218.778 165.99 218.972 164.113C219.183 162.068 220.313 160.171 221.448 158.402C224.19 154.134 224.767 150.456 225.377 146.561C225.759 144.121 226.155 141.596 227.093 138.692C227.175 138.437 227.035 138.164 226.78 138.082C226.523 138 226.252 138.14 226.17 138.395C225.209 141.372 224.808 143.934 224.419 146.412C223.799 150.368 223.264 153.783 220.632 157.879C219.432 159.746 218.241 161.759 218.006 164.014C217.791 166.081 218.395 168.133 218.977 170.117C219.698 172.572 220.38 174.89 219.534 177.077C219.224 177.878 218.729 178.589 218.205 179.339C217.752 179.987 217.283 180.66 216.936 181.404C215.137 185.266 216.994 189.6 218.876 193.36C218.963 193.528 219.134 193.627 219.31 193.627Z" fill="#E94A47"/>
<path d="M233.929 148.348C235.051 150.641 238.117 151.742 240.44 150.685" stroke="#23286B" stroke-width="0.577399" stroke-miterlimit="10" stroke-linecap="round"/>
<path d="M186.577 131.089L180.91 134.191L184.01 139.861L189.677 136.759L186.577 131.089Z" fill="#23286B"/>
<path d="M218.635 128.323L212.968 131.424L216.068 137.094L221.735 133.993L218.635 128.323Z" fill="#23286B"/>
<path d="M152.37 135.875L146.703 138.976L149.803 144.647L155.47 141.545L152.37 135.875Z" fill="#23286B"/>
<path d="M132.801 141.387L127.134 144.489L130.234 150.159L135.901 147.057L132.801 141.387Z" fill="#23286B"/>
<path d="M206.566 161.886C204.396 160.781 206.388 158.616 187.583 162.131C157.317 167.789 157.794 179.295 150.149 184.969C143.073 190.222 142.841 190.968 138.051 192.734C129.378 195.932 127.779 197.074 119.334 200.042C129.128 217.748 127.66 220.106 132.048 239.861C142.505 232.668 146.988 228.568 153.615 222.86C158.659 218.515 153.813 221.473 173.278 210.851C180.182 207.084 202.382 191.811 206.757 185.272C213.401 175.341 214.068 165.706 206.566 161.886Z" fill="url(#paint9_linear)"/>
<path d="M173.085 209.449L170.559 210.831L169.174 208.305L171.7 206.922L173.085 209.449Z" fill="white"/>
<path d="M158.279 217.052L155.753 218.435L154.368 215.908L156.894 214.525L158.279 217.052Z" fill="white"/>
<path d="M270.597 230.34C262.411 233.574 255.059 237.005 246.873 240.239C244.307 241.252 240.851 242.082 238.096 242.228C231.299 242.588 227.653 241.752 223.418 240.238C221.103 236.782 209.149 221.775 203.119 201.938C201.462 196.482 193.376 182.128 197.728 170.389C201.108 161.268 207.53 163.522 210.308 165.974C212.879 168.244 215.658 185.332 217.497 191.312C222.726 208.313 230.363 223.007 231.549 224.17C233.478 223.977 239.884 222.411 241.44 222.252C249.937 221.385 258.435 220.517 266.932 219.648C268.154 223.211 269.376 226.775 270.597 230.34Z" fill="url(#paint10_linear)"/>
</g>
<defs>
<linearGradient id="paint0_linear" x1="54.4236" y1="261.884" x2="226.427" y2="261.884" gradientUnits="userSpaceOnUse">
<stop stop-color="#E8F1FE"/>
<stop offset="1" stop-color="#C1D7F8"/>
</linearGradient>
<linearGradient id="paint1_linear" x1="114.39" y1="136.488" x2="174.505" y2="279.926" gradientUnits="userSpaceOnUse">
<stop stop-color="#23286B"/>
<stop offset="1" stop-color="#151A4F"/>
</linearGradient>
<linearGradient id="paint2_linear" x1="387.016" y1="250.406" x2="394.823" y2="247.527" gradientUnits="userSpaceOnUse">
<stop stop-color="#FFBEB6"/>
<stop offset="1" stop-color="#F8AFA9"/>
</linearGradient>
<linearGradient id="paint3_linear" x1="363.783" y1="327.26" x2="400.449" y2="411.488" gradientUnits="userSpaceOnUse">
<stop stop-color="#23286B"/>
<stop offset="1" stop-color="#151A4F"/>
</linearGradient>
<linearGradient id="paint4_linear" x1="339.26" y1="203.703" x2="336.013" y2="280.9" gradientUnits="userSpaceOnUse">
<stop stop-color="#A1C3FC"/>
<stop offset="1" stop-color="#89B3F4"/>
</linearGradient>
<linearGradient id="paint5_linear" x1="412.628" y1="457.48" x2="466.852" y2="457.48" gradientUnits="userSpaceOnUse">
<stop stop-color="#428DFC"/>
<stop offset="1" stop-color="#1D72D8"/>
</linearGradient>
<linearGradient id="paint6_linear" x1="382.489" y1="183.993" x2="392.374" y2="177.215" gradientUnits="userSpaceOnUse">
<stop stop-color="#FFBEB6"/>
<stop offset="1" stop-color="#F8AFA9"/>
</linearGradient>
<linearGradient id="paint7_linear" x1="396.553" y1="297.221" x2="374.358" y2="265.773" gradientUnits="userSpaceOnUse">
<stop stop-color="#FFBEB6"/>
<stop offset="1" stop-color="#F8AFA9"/>
</linearGradient>
<linearGradient id="paint8_linear" x1="396.973" y1="296.925" x2="374.777" y2="265.477" gradientUnits="userSpaceOnUse">
<stop stop-color="#FFBEB6"/>
<stop offset="1" stop-color="#F8AFA9"/>
</linearGradient>
<linearGradient id="paint9_linear" x1="163.067" y1="167.578" x2="170.267" y2="216.407" gradientUnits="userSpaceOnUse">
<stop stop-color="#428DFC"/>
<stop offset="1" stop-color="#1D72D8"/>
</linearGradient>
<linearGradient id="paint10_linear" x1="198.333" y1="203.228" x2="272.537" y2="202.645" gradientUnits="userSpaceOnUse">
<stop stop-color="#428DFC"/>
<stop offset="1" stop-color="#1D72D8"/>
</linearGradient>
</defs>
</svg>
