<svg width="185" height="118" viewBox="0 0 185 118" fill="none" xmlns="http://www.w3.org/2000/svg">
<path d="M185 65.4048L151.29 46.9353L127.56 82.2051L155.536 101.219L185 65.4048Z" fill="url(#paint0_linear)"/>
<path d="M130.354 28.2119L151.29 46.9354L127.56 82.2052L107.24 68.3803L130.354 28.2119Z" fill="url(#paint1_linear)"/>
<path d="M155.608 49.2941L149.73 45.5566L124.838 80.3548L130.39 84.0559L155.608 49.2941Z" fill="url(#paint2_linear)"/>
<path d="M177.743 68.6342L149.585 49.439L130.426 77.9233L154.157 94.0705L177.743 68.6342Z" fill="#D6D7D8"/>
<path d="M134.926 34.2351L149.585 49.4389L130.426 77.9232L112.791 63.3363L134.926 34.2351Z" fill="#D6D7D8"/>
<path d="M134.091 36.7029L149.585 49.4392L130.426 77.9236L114.714 65.5864L134.091 36.7029Z" fill="url(#paint3_linear)"/>
<path d="M152.597 53.1403L150.492 52.1242C153.214 46.3911 158.511 42.4722 163.954 42.1456C164.898 42.0731 165.66 42.3271 166.204 42.8714C167.111 43.8148 166.966 45.2299 166.821 46.4637C166.748 47.0805 166.676 47.8062 166.784 48.1328C166.857 48.3868 166.966 48.7134 167.075 48.8585C167.365 49.1851 168.308 48.9674 169.324 48.3868C173.062 46.1734 176.473 43.4519 179.412 40.2588L181.117 41.8554C177.997 45.1937 174.405 48.0602 170.486 50.3825C168.345 51.6525 166.458 51.6888 165.333 50.4188C164.898 49.9108 164.68 49.294 164.535 48.8585C164.281 48.0602 164.353 47.1168 164.462 46.246C164.498 45.738 164.607 44.7945 164.462 44.5405C164.426 44.5405 164.281 44.5042 164.063 44.5042C159.564 44.7582 154.919 48.2417 152.597 53.1403Z" fill="#23286B"/>
<path d="M152.488 51.4347L152.27 51.3258C152.415 51.0718 152.524 50.8541 152.669 50.6001L152.851 50.709C152.742 50.963 152.597 51.1807 152.488 51.4347Z" fill="#E94A47"/>
<path d="M153.903 49.2577L153.722 49.1125C154.085 48.6408 154.484 48.2054 154.919 47.77L155.101 47.9514C154.665 48.3868 154.266 48.8223 153.903 49.2577ZM156.371 46.754L156.225 46.5725C156.697 46.2097 157.169 45.8468 157.677 45.5203L157.786 45.7017C157.314 46.0646 156.842 46.3911 156.371 46.754ZM159.346 44.8671L159.237 44.6494C159.781 44.3954 160.326 44.1414 160.87 43.9237L160.943 44.1414C160.398 44.3591 159.854 44.5768 159.346 44.8671ZM162.612 43.6334L162.539 43.4157C163.12 43.2705 163.7 43.1617 164.281 43.0891L164.317 43.3068C163.773 43.3794 163.192 43.4883 162.612 43.6334Z" fill="#E94A47"/>
<path d="M166.494 43.8507C166.458 43.633 166.313 43.4516 166.059 43.3427L166.131 43.125C166.458 43.2701 166.676 43.4879 166.712 43.8144L166.494 43.8507Z" fill="#E94A47"/>
<path d="M173.352 63.409L149.585 49.439L130.426 77.9233L153.903 92.2562L173.352 63.409Z" fill="#EEEEEE"/>
<path d="M167.293 50.1286L167.329 49.9109C167.583 49.9472 167.837 49.9109 168.127 49.9109L168.163 50.1286C167.837 50.1286 167.583 50.1286 167.293 50.1286Z" fill="#E94A47"/>
<path d="M169.76 49.6568L169.651 49.4391C170.087 49.2577 170.558 49.0036 171.103 48.6771L171.211 48.8948C170.667 49.2214 170.195 49.4754 169.76 49.6568ZM172.627 47.9514L172.481 47.7699C172.989 47.4434 173.425 47.1168 173.824 46.8265L173.969 47.0079C173.57 47.3345 173.098 47.6248 172.627 47.9514ZM175.312 46.0645L175.167 45.8831C175.638 45.5202 176.037 45.1936 176.473 44.8671L176.618 45.0485C176.219 45.3388 175.783 45.7016 175.312 46.0645ZM177.852 43.9236L177.707 43.7422C178.106 43.3431 178.505 42.9802 178.868 42.5811L179.049 42.7262C178.65 43.1254 178.287 43.5245 177.852 43.9236Z" fill="#E94A47"/>
<path d="M180.101 41.4563L179.92 41.3111C180.101 41.0934 180.247 40.8757 180.428 40.658L180.609 40.8031C180.464 41.0208 180.283 41.2385 180.101 41.4563Z" fill="#E94A47"/>
<path d="M134.454 43.0164L136.05 43.2341L135.833 44.8669L134.2 44.6492L134.454 43.0164Z" fill="white"/>
<path d="M158.874 79.1572L160.471 79.375L160.253 81.0078L158.62 80.7901L158.874 79.1572Z" fill="white"/>
<path d="M138.191 52.741L139.824 52.995L139.57 54.5916L137.974 54.3738L138.191 52.741Z" fill="white"/>
<path d="M151.944 68.1265L153.576 68.3442L153.322 69.977L151.69 69.7593L151.944 68.1265Z" fill="white"/>
<path d="M139.788 55.5715L141.421 55.7893L141.167 57.4221L139.57 57.2044L139.788 55.5715Z" fill="white"/>
<path d="M129.374 51.9429L130.97 52.1969L130.753 53.8297L129.12 53.5757L129.374 51.9429Z" fill="white"/>
<path d="M163.228 61.5947L164.861 61.8124L164.607 63.4453L163.011 63.2276L163.228 61.5947Z" fill="white"/>
<path d="M132.857 60.615L133.256 65.4773L131.043 61.1593L132.857 60.615Z" fill="#151A4F"/>
<path d="M97.5874 95.9213C95.5191 96.6833 93.3057 95.6674 91.3463 94.6876C83.8714 90.8776 76.3602 87.0676 68.8854 83.2939C66.8171 82.2416 64.7125 81.153 63.3336 79.3024C61.8459 77.3067 61.4468 74.7667 60.5033 72.4807C69.1394 77.3067 79.6622 77.1979 88.9151 80.7539C90.802 81.4796 92.6526 82.3505 94.3943 83.3665C96.7529 84.7453 99.0752 86.487 100.055 89.027C100.998 91.567 100.127 94.9779 97.5874 95.9213Z" fill="#151A4F"/>
<path d="M59.5962 74.3676L42.6507 74.6941V62.7561L60.2493 64.7155L59.5962 74.3676Z" fill="#151A4F"/>
<path d="M50.1619 65.9128C50.5973 64.7517 50.9239 63.5543 51.1053 62.3206C51.1779 61.9214 51.2141 61.486 51.069 61.1231C50.8876 60.724 50.5247 60.47 50.1256 60.2523C47.9121 58.946 45.5898 57.7848 43.6667 56.0794C41.0904 53.8297 39.131 50.5639 35.8652 49.5842C34.2324 52.596 32.9987 55.8254 32.2729 59.2C36.0467 60.5063 39.9655 61.8488 42.8684 64.6428C43.3038 65.0783 43.7393 65.55 44.3198 65.7677C44.7553 65.9491 45.2633 65.9491 45.735 65.9491C47.2227 65.9129 48.7104 65.9128 50.1619 65.9128Z" fill="#F8AFA9"/>
<path d="M120.956 46.1733C121.137 45.7016 121.318 45.1936 121.355 44.6856C121.355 44.5768 121.355 44.4316 121.427 44.3228C121.464 44.2139 121.572 44.1776 121.645 44.105C121.863 43.9236 122.117 43.7422 122.407 43.7422C122.697 43.7785 122.915 43.9962 123.024 44.2865C123.024 44.3228 123.024 44.3228 123.06 44.3591C123.133 44.2502 123.169 44.1413 123.242 44.0688C124.221 44.3228 125.165 44.5768 126.036 45.0848C126.906 45.5928 127.596 46.4636 127.705 47.4433C127.741 47.8062 127.705 48.1691 127.668 48.5319C127.523 49.6931 127.378 50.8905 127.233 52.0517C127.088 53.1402 126.906 54.3739 126.108 55.0996C125.89 55.2811 125.6 55.4262 125.346 55.3174C125.165 55.2085 124.874 54.7368 124.802 54.5191C124.366 52.7048 124.729 51.0719 124.874 49.1851C124.657 50.4188 124.403 51.7251 123.713 52.7774C123.024 53.8297 122.625 54.1199 121.754 53.8296C121.391 53.7208 121.355 52.5597 121.5 51.1445C121.464 51.1808 121.427 51.2533 121.391 51.2896C121.173 51.5073 120.774 51.6162 120.52 51.4348C120.266 51.2534 120.23 50.8905 120.23 50.5639C120.23 49.0399 120.484 47.5522 120.956 46.1733Z" fill="#F2A19C"/>
<path d="M130.027 47.3344C130.317 47.915 130.68 48.4593 130.789 49.0761C130.898 49.693 131.007 50.9267 130.245 50.8178C128.938 50.6001 126.761 47.1167 125.709 44.7944C124.294 45.375 122.806 45.7378 121.282 45.8104C121.282 47.0441 121.028 48.2416 120.556 49.3664C119.976 48.5318 119.032 48.0239 118.161 47.5158C115.367 45.9918 112.573 44.4678 109.743 43.0164C112.428 42.6535 115.077 41.9278 117.617 40.8392C118.053 40.6578 118.452 40.4764 118.851 40.2587C119.105 40.1135 119.323 39.9684 119.613 39.8958C119.831 39.8232 120.085 39.8232 120.302 39.8595C122.951 39.9321 127.124 40.2587 128.213 40.1135C129.229 40.1861 128.866 45.1573 130.027 47.3344Z" fill="#FFBEB6"/>
<path d="M131.95 62.0665C132.059 62.0665 132.168 62.0665 132.277 62.0302C132.821 61.8488 133.111 61.2319 132.93 60.6876L121.5 26.1798C121.318 25.6355 120.738 25.3452 120.157 25.5267C119.613 25.7081 119.323 26.3249 119.504 26.8692L130.934 61.377C131.079 61.7762 131.515 62.0665 131.95 62.0665Z" fill="#428DFC"/>
<path d="M115.476 44.105C117.726 45.2299 120.447 46.0282 121.681 48.2416C121.79 47.8787 122.262 47.7699 122.661 47.7699C123.967 47.7699 125.274 47.9513 126.507 48.2779C127.16 48.4593 127.85 48.677 128.358 49.1124C128.866 49.5479 129.229 50.2736 129.047 50.9267C129.011 51.0719 128.938 51.217 128.83 51.2896C128.684 51.3984 128.539 51.3984 128.358 51.4347C125.128 51.7976 121.935 52.1242 118.706 52.487C117.726 52.5959 116.71 52.7047 115.767 52.3782C114.714 52.0153 113.916 51.1807 113.118 50.455C112.755 50.0922 112.319 49.7293 111.811 49.5841C111.412 49.439 110.977 49.4753 110.541 49.5116C106.913 49.693 103.248 49.8382 99.6194 50.0196C99.4743 47.9876 98.9663 45.9919 98.1317 44.105C97.7326 43.1978 97.1157 42.1819 96.136 42.073C100.127 42.8713 104.228 43.089 108.292 42.6898C109.634 42.5447 111.013 42.3633 112.319 42.6898C113.481 42.9801 114.46 43.597 115.476 44.105Z" fill="#FFBEB6"/>
<path d="M3.93375 100.094C2.0106 101.582 -0.202838 103.396 0.0148766 105.828C8.1429 109.13 18.0852 107.497 24.7255 101.727C25.5964 100.965 26.431 100.131 27.5195 99.8041C29.0073 99.3324 30.6401 99.8766 32.1278 100.312C39.7841 102.489 48.2387 101.437 55.133 97.4818C53.7179 94.724 52.8833 91.676 52.6293 88.5917C42.5056 87.5032 32.3455 86.4146 22.2218 85.326C21.2421 85.2172 20.2624 85.1083 19.3552 85.4712C18.3029 85.8703 17.5409 86.8137 16.8152 87.6846C13.0052 92.2566 8.6509 96.4658 3.93375 100.094Z" fill="#78A9EF"/>
<path d="M7.05437 97.5542V107.424C6.58265 107.388 6.14722 107.351 5.67551 107.279V98.7154C6.14722 98.3162 6.58265 97.9533 7.05437 97.5542Z" fill="#428DFC"/>
<path d="M14.7832 101.255L10.8281 96.8647L14.7832 92.4741L13.6584 91.2041C13.9849 90.8776 14.2752 90.5147 14.6018 90.1519L16.4887 92.4741L12.4972 96.901L16.4524 101.292L12.4972 105.682L13.7309 107.025C13.2592 107.134 12.7512 107.206 12.2795 107.279L10.8281 105.646L14.7832 101.255Z" fill="#428DFC"/>
<path d="M23.9273 85.4709V102.38C23.4918 102.743 23.0201 103.07 22.5484 103.396V85.3621C22.9838 85.3621 23.4555 85.4346 23.9273 85.4709Z" fill="#428DFC"/>
<path d="M31.6561 92.5102L27.701 88.1196L29.5879 86.0876C30.0233 86.1239 30.4224 86.1602 30.8579 86.2328L29.4427 87.7205L33.3616 92.5465L29.3701 96.9008L32.5996 100.457C32.4544 100.421 32.273 100.384 32.1279 100.348C31.5473 100.203 30.9667 100.021 30.3861 99.8763L27.701 96.9008L31.6561 92.5102Z" fill="#428DFC"/>
<path d="M7.99777 115.588C8.6872 113.992 9.41292 112.359 10.3564 110.907C11.3361 109.383 12.5335 107.968 13.6946 106.589C17.8312 101.654 21.6412 96.4655 25.4513 91.2766C28.3904 91.966 31.3296 92.6192 34.2687 93.3086C35.1033 93.49 35.9741 93.7078 36.8087 93.744C37.4619 93.7803 38.115 93.7078 38.7682 93.6352C43.7756 93.1272 48.7105 92.3289 53.6091 91.2766C53.355 96.1752 51.2142 101.183 51.2505 106.081C45.735 106.626 40.2196 106.626 34.6316 106.626C34.305 106.626 33.9784 106.626 33.6881 106.734C33.3253 106.88 33.0713 107.17 32.8173 107.424C29.4064 111.016 25.1973 113.846 20.589 115.697C18.1578 116.677 15.5089 117.366 12.8964 117.148C11.1909 116.967 9.48549 116.459 7.99777 115.588Z" fill="#A1C3FC"/>
<path opacity="0.61" d="M20.9881 109.057L17.0329 104.666L20.9881 100.275L19.7181 98.8966C19.9721 98.57 20.2261 98.2072 20.4801 97.8806L22.6572 100.275L18.7021 104.702L22.6572 109.093L18.7021 113.484L20.6252 115.624C20.5889 115.624 20.5889 115.661 20.5527 115.661C20.0809 115.842 19.6455 116.024 19.1738 116.169L16.9966 113.484L20.9881 109.057Z" fill="#428DFC"/>
<path opacity="0.61" d="M27.8098 91.7847V111.669C27.3744 111.996 26.9027 112.286 26.431 112.613V91.4944C26.9027 91.567 27.3744 91.6758 27.8098 91.7847Z" fill="#428DFC"/>
<path opacity="0.61" d="M44.6828 92.8372V106.444C44.211 106.444 43.7756 106.481 43.3039 106.481V93.0186C43.7756 92.946 44.211 92.8734 44.6828 92.8372Z" fill="#428DFC"/>
<path opacity="0.61" d="M37.8609 100.312L33.9058 95.9212L36.0467 93.5989C36.3007 93.6352 36.5547 93.6714 36.8087 93.6714C37.0627 93.6714 37.3167 93.6714 37.5707 93.6714L35.5749 95.9212L39.5301 100.312L35.5749 104.702L37.2441 106.553C36.6998 106.553 36.1192 106.553 35.5749 106.553L33.9058 104.702L37.8609 100.312Z" fill="#428DFC"/>
<path d="M93.1243 63.4093C90.4028 63.8811 87.5725 63.5908 84.9962 62.5385C83.3271 61.2322 92.9428 56.9867 97.406 55.2087C99.0751 57.0593 100.926 58.7648 102.885 60.3251C107.385 63.9174 112.501 66.6751 117.545 69.4328C114.388 71.0294 112.61 72.0454 110.687 75.0208C106.26 72.8437 100.889 72.1542 96.4626 69.9771C93.85 68.7071 91.2011 67.4008 88.5885 66.1308C87.2823 65.4776 84.8148 64.8245 85.214 63.4456C85.7582 61.6313 88.9151 62.9739 90.6568 63.7359C92.3985 64.4979 94.1403 65.4776 96.0271 65.2962C95.3014 64.3528 94.2491 63.6996 93.1243 63.4093Z" fill="#FFBEB6"/>
<path d="M87.3186 93.454C93.2695 94.5789 100.127 97.5906 102.776 103.033C95.1926 108.113 85.3229 108.259 76.2151 107.859C67.1074 107.497 58.0722 105.864 48.9645 106.263C50.561 101.945 50.2345 96.9737 48.0936 92.9097C61.0476 90.8051 74.4008 90.9866 87.3186 93.454Z" fill="#151A4F"/>
<path d="M34.4501 92.3653C40.2921 94.7602 46.8598 93.853 53.1736 93.7442C55.9676 93.6716 58.7253 93.7804 61.5193 94.0344C67.833 94.615 74.3282 96.0664 79.2994 100.022C80.7871 101.219 82.1297 102.598 83.7262 103.578C86.4114 105.247 91.056 106.263 94.1765 106.009C97.2971 105.755 98.8574 105.174 100.418 104.63C101.506 104.231 104.627 101.872 105.244 100.892C106.078 99.5499 105.135 97.0462 104.337 95.7036C101.325 90.6599 96.6803 88.1561 91.6728 85.1444C86.6654 82.1327 81.1862 79.9918 75.7434 77.851C71.3891 76.1455 66.9985 74.4038 62.6442 72.6984C62.0999 72.4807 60.4307 71.4284 60.0679 71.1744C57.0199 68.8884 52.4478 70.9567 48.8556 69.3238C46.9687 68.4529 51.0327 68.1264 52.3027 68.3441C55.0241 68.8884 57.1287 69.6141 59.8502 70.1221C60.3219 68.6707 60.721 67.1104 61.6644 66.0944C55.2056 65.2235 49.7264 63.1189 43.6304 60.7604C39.8204 59.3089 35.8289 57.7486 33.0349 54.7732C31.2206 57.4946 29.4426 60.2523 27.7735 63.0464C26.1769 65.7315 24.6166 68.5255 23.8909 71.5372C21.8589 79.7741 26.6123 89.1359 34.4501 92.3653Z" fill="url(#paint4_linear)"/>
<path d="M95.8821 72.0087C95.7369 72.4441 103.901 73.5327 104.446 73.7504C110.796 76.2179 132.458 82.6042 129.882 77.9233C124.802 71.537 120.375 70.8476 113.662 66.2393C110.832 64.3161 107.348 62.5018 104.155 63.663C102.776 64.171 101.652 65.1507 100.563 66.1304C98.6761 67.7996 96.7166 69.6138 95.8821 72.0087Z" fill="#1D72D8"/>
<path d="M71.6068 58.0388C73.0582 57.422 74.6185 57.168 76.1788 56.9503C79.4445 56.5148 82.7465 56.1883 85.8671 55.136C88.9877 54.0837 91.9631 52.1605 93.596 49.2939C95.2288 46.3911 95.3014 42.8351 94.5031 39.6056C93.7048 36.3762 92.1083 33.4008 90.548 30.4616C89.4594 28.4296 88.3708 26.4339 87.2822 24.4019C87.0282 23.9664 86.7742 23.4584 86.3388 23.2044C85.9034 22.9504 85.3228 22.9504 84.8148 22.9504C74.4734 23.1682 64.1319 25.563 55.0242 30.4616C45.9164 35.3602 38.0787 42.7988 33.1801 51.9065C35.2121 54.5917 36.7724 57.676 39.2035 59.962C41.0541 61.74 43.3401 62.9374 45.6624 64.0623C51.2504 66.7474 54.1533 67.7271 60.1767 69.1423C61.8459 64.3163 66.9259 60.0346 71.6068 58.0388Z" fill="url(#paint5_linear)"/>
<path d="M114.678 24.4744C116.71 24.4744 118.307 22.2246 118.307 19.3218C118.307 16.4189 116.71 14.1692 114.678 14.1692C112.646 14.1692 111.049 16.4189 111.049 19.3218C111.049 22.2246 112.646 24.4744 114.678 24.4744ZM114.678 15.5843C115.876 15.5843 116.892 17.2898 116.892 19.3218C116.892 21.3538 115.876 23.0592 114.678 23.0592C113.481 23.0592 112.465 21.3538 112.465 19.3218C112.465 17.2898 113.481 15.5843 114.678 15.5843Z" fill="#428DFC"/>
<path d="M129.301 75.4198C130.317 76.9075 131.116 78.8306 130.317 80.4635C129.265 82.6044 126.253 82.7495 123.931 82.2052C115.005 80.1006 108.038 73.3152 101.579 66.7837C98.0592 63.2277 98.0229 62.3206 94.5032 58.7646C92.8703 57.0954 90.6569 51.1446 86.8469 50.056C75.816 46.8628 81.3677 40.5128 81.5492 37.6462C81.7306 34.4531 86.0486 35.9408 88.1895 33.5459C88.4797 33.2194 88.8426 32.8928 89.278 32.7114C89.9312 32.4936 90.6206 32.7114 91.2375 32.9654C94.7209 34.4168 97.2972 37.3922 99.7283 40.2951C108.8 51.0357 117.871 61.74 126.943 72.4806C127.741 73.3878 128.576 74.3675 129.301 75.4198Z" fill="url(#paint6_linear)"/>
<path d="M115.077 11.5204C116.238 17.8341 113.989 17.4712 114.279 21.0998C114.497 23.4221 110.614 30.9695 109.308 32.0944C108.001 33.183 105.752 32.3484 104.119 31.9493C102.196 31.4776 101.325 31.2961 100.164 29.6995C97.6963 26.3975 95.1563 22.8415 94.7934 18.7049C94.5394 15.8746 95.4103 13.0444 96.6077 10.4318C97.8415 7.78291 99.6557 5.13404 102.413 4.15432C104.772 3.31975 107.385 3.86403 109.671 4.84375C110.578 5.2429 109.961 4.26319 110.687 4.95262C111.884 6.11376 114.787 9.88749 115.077 11.5204Z" fill="#FDBAB3"/>
<path d="M96.136 43.0167C96.1723 43.0167 96.2086 43.0167 96.2086 43.0167C102.522 41.3838 107.784 35.6869 108.945 29.0829C109.199 27.5952 109.308 26.0712 109.38 24.6198C109.417 23.6037 109.489 22.5877 109.598 21.5717C109.816 19.7937 110.179 18.0157 110.759 16.3103C110.977 15.6572 111.231 15.004 111.485 14.3872C111.92 13.2623 112.356 12.0649 112.682 10.8674C112.719 10.686 112.61 10.5046 112.428 10.432C112.247 10.3957 112.065 10.5046 111.993 10.686C111.703 11.8471 111.267 13.0083 110.832 14.1331C110.578 14.7863 110.324 15.4394 110.106 16.0926C109.525 17.8343 109.09 19.6849 108.909 21.4992C108.8 22.5152 108.727 23.5675 108.691 24.5835C108.618 26.0349 108.546 27.5226 108.292 28.974C107.167 35.2878 102.123 40.7669 96.0634 42.3272C95.882 42.3635 95.7731 42.5812 95.8094 42.7627C95.8457 42.9078 95.9908 43.0167 96.136 43.0167Z" fill="#E94A47"/>
<path d="M76.324 18.8865C76.9408 18.8865 77.594 18.8502 78.2108 18.7414C81.2588 18.2334 84.0891 16.4554 85.7946 13.9879C86.3751 13.1171 86.8469 12.1736 87.2823 11.2665C87.5 10.7948 87.754 10.323 88.008 9.85133C90.8383 4.58989 96.2449 0.997588 101.76 0.707301C107.131 0.417015 113.118 3.50131 114.352 11.0125C114.388 11.1939 114.569 11.3391 114.751 11.3028C114.932 11.2665 115.077 11.085 115.041 10.9036C113.698 2.95702 107.385 -0.272414 101.724 0.0178728C95.9546 0.308159 90.3303 4.0456 87.3911 9.52476C87.1371 9.99648 86.9194 10.4682 86.6654 10.9762C86.23 11.8833 85.7946 12.7905 85.214 13.6251C83.6174 15.9473 80.9686 17.5802 78.102 18.0519C75.2354 18.5236 72.1148 17.7979 69.8288 16.1288C69.6837 16.0199 69.4659 16.0562 69.3571 16.2014C69.2482 16.3465 69.2845 16.5642 69.4297 16.7094C71.3528 18.1245 73.8565 18.8865 76.324 18.8865Z" fill="#E94A47"/>
<path d="M63.9142 53.7209C61.8096 52.3058 59.7413 50.8906 57.673 49.4029C57.927 46.2823 59.3785 44.3592 61.3742 41.3111C61.9548 40.4403 62.6079 39.7509 63.1885 38.9163C58.4713 40.9483 55.2056 46.7903 54.6976 47.262C50.5973 44.2503 46.6059 41.0934 42.6507 37.9003C44.7553 29.6634 66.4905 19.0679 74.1831 20.6282C77.6302 21.3177 81.5491 20.9911 83.8351 18.3422C85.2503 16.6731 85.8671 14.4959 86.7017 12.4639C88.5523 7.89191 91.9268 3.71905 96.4989 1.90476C101.071 0.0904672 115.404 1.65076 115.077 11.6656C112.719 16.6005 107.348 16.2376 107.639 21.7168C107.747 24.0391 108.147 26.3614 107.53 28.6111C107.094 30.3165 106.078 31.8406 104.953 33.1831C101.942 36.7029 97.6963 39.0977 93.1606 39.896C88.9514 40.6217 84.6697 40.0049 80.388 39.8234C76.1425 39.6057 71.6431 39.8597 67.9782 42.0732C64.3496 44.2866 61.9185 49.04 63.5513 52.9589C63.6602 53.2129 63.8053 53.4669 63.9142 53.7209Z" fill="#E94A47"/>
<path d="M62.0999 74.2224C62.1362 74.2587 62.1725 74.2949 62.2088 74.2587C62.2451 74.2224 62.2814 74.1861 62.2451 74.1498C62.2088 74.1135 62.1725 74.0772 62.1362 74.1135C62.0999 74.1135 62.0999 74.1861 62.0999 74.2224ZM63.9868 73.1701C64.0231 73.2064 64.0594 73.2427 64.0957 73.2064C64.1319 73.1701 64.1682 73.1338 64.1319 73.0975C64.0957 73.0612 64.0594 73.0249 64.0231 73.0612C63.9868 73.0612 63.9868 73.1338 63.9868 73.1701ZM69.2845 79.9918C69.3208 79.9918 69.3934 79.9918 69.3934 79.9193C69.3934 79.883 69.3934 79.8104 69.3208 79.8104C69.2845 79.8104 69.212 79.8104 69.212 79.883C69.212 79.9192 69.2482 79.9556 69.2845 79.9918ZM70.482 75.7827C70.5182 75.7827 70.5908 75.7827 70.5908 75.7101C70.5908 75.6738 70.5908 75.6012 70.5182 75.6012C70.482 75.6012 70.4094 75.6375 70.4094 75.6738C70.4094 75.7464 70.4457 75.7827 70.482 75.7827ZM71.0988 73.7144C71.1351 73.7144 71.2077 73.7144 71.2077 73.6418C71.2077 73.6055 71.2077 73.5329 71.1351 73.5329C71.0988 73.5329 71.0262 73.5329 71.0262 73.6055C71.0262 73.6418 71.0625 73.6781 71.0988 73.7144ZM78.3197 78.9033C78.356 78.9395 78.3923 78.9758 78.4286 78.9395C78.4648 78.9033 78.5011 78.867 78.4648 78.8307C78.4286 78.7944 78.3923 78.7581 78.356 78.7944C78.3197 78.8307 78.2834 78.867 78.3197 78.9033ZM65.8011 76.835C65.8374 76.8713 65.9099 76.8713 65.9099 76.835C65.9462 76.7987 65.9462 76.7261 65.9099 76.7261C65.8737 76.6898 65.8011 76.6898 65.8011 76.7261C65.7648 76.7624 65.7648 76.7987 65.8011 76.835ZM68.4862 73.4604C68.5225 73.4967 68.5951 73.4967 68.5951 73.4241C68.6314 73.3878 68.6314 73.3152 68.5951 73.3152C68.5588 73.279 68.4862 73.279 68.4862 73.3152C68.45 73.3515 68.45 73.4241 68.4862 73.4604ZM69.8651 71.755C69.9014 71.7912 69.9377 71.7912 69.974 71.755C70.0102 71.7187 70.0102 71.6461 69.974 71.6461C69.9377 71.6098 69.8651 71.6098 69.8651 71.6461C69.7925 71.6461 69.8288 71.7187 69.8651 71.755ZM73.7114 79.1572C73.7114 79.1935 73.7477 79.2298 73.8203 79.2298C73.8565 79.2298 73.8928 79.1935 73.8928 79.121C73.8928 79.0847 73.8565 79.0484 73.784 79.0484C73.7477 79.0484 73.7114 79.121 73.7114 79.1572ZM73.4574 76.9801C73.4574 77.0164 73.4937 77.0527 73.5663 77.0527C73.6025 77.0527 73.6388 77.0164 73.6388 76.9801C73.6388 76.9438 73.6025 76.9075 73.53 76.9075C73.4937 76.9075 73.4574 76.9438 73.4574 76.9801ZM57.6005 81.8424C57.6731 81.915 57.7819 81.915 57.8545 81.8424C57.9271 81.7698 57.9271 81.661 57.8545 81.6247C57.7819 81.5521 57.6731 81.5521 57.6005 81.6247C57.5279 81.6973 57.5279 81.8061 57.6005 81.8424ZM60.3945 78.8307C60.4671 78.9033 60.5759 78.9033 60.6485 78.8307C60.7211 78.7581 60.7211 78.6493 60.6485 78.5767C60.5759 78.5041 60.4671 78.5041 60.4308 78.5767C60.3219 78.6493 60.3219 78.7581 60.3945 78.8307ZM63.1522 75.7827C63.2248 75.8552 63.3336 75.8552 63.4062 75.7827C63.4788 75.7101 63.4788 75.6012 63.4062 75.5287C63.3336 75.4561 63.2248 75.4561 63.1522 75.5287C63.0796 75.6012 63.0796 75.7101 63.1522 75.7827ZM71.0625 90.6962C71.0625 90.805 71.1351 90.8776 71.244 90.8413C71.3165 90.8413 71.4254 90.7687 71.3891 90.6599C71.3891 90.551 71.3165 90.4784 71.2077 90.5147C71.0988 90.551 71.0262 90.6236 71.0625 90.6962ZM70.8811 86.5958C70.8811 86.7047 70.9537 86.7773 71.0625 86.7773C71.1714 86.7773 71.244 86.7047 71.244 86.5958C71.244 86.487 71.1714 86.4144 71.0625 86.4507C70.9537 86.4144 70.8811 86.487 70.8811 86.5958ZM70.6997 82.4593C70.6997 82.5681 70.7722 82.6407 70.8811 82.6044C70.9537 82.6044 71.0625 82.5318 71.0262 82.423C71.0262 82.3141 70.9537 82.2415 70.8448 82.2415C70.736 82.3141 70.6997 82.3867 70.6997 82.4593ZM70.3368 74.2224C70.3368 74.3312 70.4094 74.4038 70.5182 74.3675C70.6271 74.3675 70.6997 74.295 70.6634 74.1861C70.6634 74.0772 70.5908 74.0047 70.482 74.041C70.4094 74.0772 70.3368 74.1498 70.3368 74.2224ZM54.9516 75.0207C54.9879 75.0932 55.0968 75.1295 55.1693 75.0932C55.2419 75.057 55.2782 74.9481 55.2419 74.8755C55.2056 74.803 55.0968 74.7667 55.0242 74.8029C54.9153 74.8392 54.8791 74.9118 54.9516 75.0207ZM58.6528 73.279C58.6891 73.3515 58.7979 73.3878 58.8705 73.3515C58.9431 73.3152 58.9793 73.2064 58.9431 73.1338C58.9068 73.0612 58.7979 73.0249 58.7254 73.0612C58.6528 73.0975 58.6165 73.1701 58.6528 73.279ZM62.8257 87.6119C62.8982 87.6481 63.0071 87.5756 63.0434 87.503C63.0796 87.4304 63.0071 87.3216 62.9345 87.2853C62.8619 87.249 62.7531 87.2853 62.7168 87.3941C62.6805 87.4667 62.7168 87.5756 62.8257 87.6119ZM64.2408 83.7293C64.3134 83.7656 64.4222 83.693 64.4585 83.6204C64.4948 83.5478 64.4222 83.439 64.3497 83.4027C64.2771 83.3664 64.1682 83.4027 64.1319 83.5115C64.0957 83.5841 64.1319 83.693 64.2408 83.7293ZM65.6197 79.8467C65.7285 79.883 65.8011 79.8104 65.8374 79.7378C65.8737 79.6653 65.8374 79.5564 65.7285 79.5201C65.6559 79.4838 65.5471 79.5201 65.5108 79.629C65.5108 79.7015 65.5471 79.8104 65.6197 79.8467ZM78.4648 86.9587C78.5011 87.0313 78.61 87.0676 78.6825 87.0313C78.7551 86.995 78.7914 86.8861 78.7551 86.8136C78.7188 86.741 78.61 86.7047 78.5374 86.7047C78.4648 86.7773 78.4286 86.8498 78.4648 86.9587ZM76.7231 83.2213C76.7594 83.2938 76.8683 83.3301 76.9408 83.2938C77.0134 83.2576 77.0497 83.1487 77.0134 83.0761C76.9771 83.0036 76.8683 82.9673 76.7957 83.0036C76.7231 83.0398 76.6868 83.1124 76.7231 83.2213ZM74.9814 79.4838C75.0177 79.5564 75.1265 79.5927 75.1991 79.5564C75.2717 79.5201 75.308 79.4112 75.2717 79.3387C75.2354 79.2661 75.1265 79.2298 75.054 79.2661C74.9814 79.3024 74.9451 79.375 74.9814 79.4838ZM73.2397 75.7464C73.276 75.819 73.3848 75.8553 73.4574 75.819C73.53 75.7827 73.5663 75.6738 73.53 75.6012C73.4937 75.5287 73.3848 75.4924 73.3123 75.5287C73.2397 75.5649 73.2034 75.6375 73.2397 75.7464ZM59.0519 86.1241C59.1245 86.1604 59.2334 86.1241 59.2696 86.0515C59.3059 85.979 59.2696 85.8701 59.1971 85.8338C59.1245 85.7976 59.0156 85.8338 58.9794 85.9064C58.9794 85.979 58.9794 86.0878 59.0519 86.1241ZM60.6485 82.7858C60.7211 82.8221 60.8299 82.7858 60.8662 82.7133C60.9025 82.6407 60.8662 82.5318 60.7936 82.4955C60.7211 82.4593 60.6122 82.4955 60.5759 82.5681C60.5396 82.677 60.5759 82.7495 60.6485 82.7858ZM62.1725 79.375C62.1725 79.4113 62.2088 79.4475 62.2451 79.4475C62.3176 79.4838 62.4265 79.4475 62.4628 79.375C62.4991 79.3024 62.4628 79.1935 62.3902 79.1572C62.3539 79.121 62.2814 79.121 62.2451 79.1572C62.2088 79.1572 62.2088 79.1935 62.2088 79.2298C62.1362 79.3024 62.1362 79.3387 62.1725 79.375ZM63.8054 76.1455C63.8779 76.1818 63.9868 76.1455 64.0231 76.0729C64.0594 76.0004 64.0231 75.8915 63.9505 75.8552C63.8779 75.819 63.7691 75.8552 63.7328 75.9278C63.6965 76.0367 63.7328 76.1092 63.8054 76.1455ZM74.4371 86.8136C74.4734 86.8861 74.546 86.9224 74.6548 86.9224C74.7274 86.8861 74.7637 86.8136 74.7274 86.741C74.6911 86.6684 74.6185 86.6321 74.546 86.6321C74.4371 86.6684 74.4008 86.741 74.4371 86.8136ZM73.2034 83.3664C73.2397 83.439 73.3123 83.4753 73.3848 83.439C73.4574 83.4027 73.4937 83.3301 73.4574 83.2576C73.4211 83.185 73.3485 83.1487 73.276 83.1487C73.2034 83.185 73.1671 83.2938 73.2034 83.3664ZM71.9697 79.883C72.006 79.9555 72.0785 79.9918 72.1511 79.9918C72.2237 79.9556 72.26 79.883 72.26 79.8104C72.2237 79.7378 72.1511 79.7015 72.0785 79.7015C71.9697 79.7378 71.9334 79.8104 71.9697 79.883ZM70.736 76.4358C70.7722 76.5084 70.8448 76.5447 70.9174 76.5084C70.99 76.4721 71.0262 76.3995 70.99 76.327C70.9537 76.2544 70.8811 76.2181 70.8085 76.2181C70.7722 76.2544 70.6997 76.3632 70.736 76.4358ZM69.5022 72.9524C69.5385 73.0249 69.6111 73.0612 69.6837 73.0612C69.7562 73.0249 69.7925 72.9524 69.7925 72.8798C69.7562 72.8072 69.6837 72.7709 69.5748 72.7709C69.5385 72.8072 69.5022 72.8798 69.5022 72.9524ZM56.5482 77.5244C56.6208 77.597 56.6933 77.597 56.7659 77.5244C56.8385 77.4881 56.8385 77.3792 56.7659 77.3067C56.7296 77.2341 56.6208 77.2341 56.5482 77.3067C56.4756 77.3792 56.4756 77.4881 56.5482 77.5244ZM64.7125 70.1584C64.7851 70.2309 64.8577 70.2309 64.9302 70.1584C65.0028 70.0858 65.0028 70.0132 64.9302 69.9407C64.8577 69.8681 64.7851 69.8681 64.7125 69.9407C64.6762 69.9769 64.6762 70.0858 64.7125 70.1584ZM66.4179 86.0515C66.4179 86.1241 66.4905 86.1967 66.5631 86.1967C66.6357 86.1967 66.7082 86.1241 66.7082 86.0515C66.7082 85.979 66.6357 85.9064 66.5631 85.8701C66.4905 85.9064 66.4179 85.979 66.4179 86.0515ZM66.5994 82.3867C66.5994 82.4593 66.6357 82.5318 66.7445 82.5318C66.8171 82.5318 66.8897 82.4593 66.8897 82.3867C66.8897 82.3141 66.8171 82.2415 66.7445 82.2053C66.6719 82.2415 66.5994 82.3141 66.5994 82.3867ZM66.7808 78.7218C66.7808 78.7944 66.8534 78.867 66.9259 78.867C66.9985 78.867 67.0711 78.7944 67.0711 78.7218C67.0711 78.6493 66.9985 78.5767 66.9259 78.5767C66.8534 78.5767 66.7808 78.613 66.7808 78.7218ZM79.7348 81.5521C79.7711 81.6247 79.88 81.6247 79.9526 81.5521C80.0251 81.5158 80.0251 81.407 79.9526 81.3344C79.88 81.2618 79.8074 81.2618 79.7348 81.3344C79.6623 81.407 79.6623 81.5158 79.7348 81.5521ZM77.2674 78.8307C77.34 78.9033 77.4125 78.9033 77.4851 78.8307C77.5577 78.7581 77.5577 78.6855 77.4851 78.613C77.4125 78.5404 77.34 78.5404 77.2674 78.613C77.2311 78.6492 77.1948 78.7581 77.2674 78.8307ZM58.2899 77.0164C58.3262 77.0527 58.3988 77.0527 58.3988 76.9801C58.4351 76.9438 58.4351 76.8712 58.3625 76.8712C58.3262 76.835 58.2536 76.835 58.2536 76.9075C58.2173 76.9438 58.2174 76.9801 58.2899 77.0164ZM60.8662 73.5329C60.9025 73.5692 60.9751 73.5692 60.9751 73.4967C61.0114 73.4604 61.0114 73.4241 60.9751 73.3878C60.9388 73.3515 60.8662 73.3515 60.8662 73.4241C60.7936 73.4604 60.7936 73.4967 60.8662 73.5329C60.8299 73.5329 60.8299 73.5329 60.8662 73.5329ZM67.0711 79.1935C67.0711 79.2298 67.1074 79.2661 67.1799 79.2661C67.2162 79.2661 67.2525 79.2298 67.2525 79.1572C67.2525 79.121 67.2162 79.0847 67.1437 79.0847C67.1074 79.0847 67.0711 79.121 67.0711 79.1935ZM65.8011 70.5938C65.8011 70.6301 65.8374 70.6664 65.9099 70.6664C65.9462 70.6664 65.9825 70.6301 65.9825 70.5575C65.9825 70.5212 65.9462 70.4849 65.8737 70.4849C65.8374 70.4849 65.8011 70.5575 65.8011 70.5938ZM56.0402 72.8435C56.0765 72.8798 56.1128 72.9161 56.1491 72.8798C56.1853 72.8435 56.2216 72.8072 56.1853 72.7709C56.1491 72.7347 56.1128 72.6984 56.0765 72.7347C56.0039 72.7347 56.0039 72.8072 56.0402 72.8435ZM57.8908 71.7187C57.9271 71.7549 57.9633 71.7912 57.9996 71.755C58.0359 71.7187 58.0722 71.6824 58.0359 71.6461C57.9996 71.6098 57.9634 71.5735 57.9271 71.6098C57.8908 71.6098 57.8545 71.6824 57.8908 71.7187ZM62.7168 77.8872C62.7531 77.8872 62.8257 77.851 62.8257 77.8147C62.8257 77.7784 62.8256 77.7058 62.7531 77.7058C62.7168 77.7058 62.6442 77.7058 62.6442 77.7784C62.6442 77.8147 62.6442 77.851 62.7168 77.8872ZM63.2248 75.7464C63.2611 75.7464 63.3337 75.7101 63.3337 75.6738C63.3337 75.6375 63.2974 75.565 63.2611 75.565C63.2248 75.565 63.1522 75.565 63.1522 75.6012C63.1522 75.7101 63.1885 75.7464 63.2248 75.7464ZM63.7328 73.6418C63.7691 73.6418 63.8417 73.6418 63.8417 73.5692C63.8417 73.533 63.8054 73.4604 63.7691 73.4604C63.7328 73.4604 63.6602 73.4967 63.6602 73.5329C63.6602 73.6055 63.6965 73.6418 63.7328 73.6418ZM70.8448 76.6535C70.8811 76.6898 70.9174 76.7261 70.9537 76.6898C70.99 76.6535 71.0262 76.6172 70.99 76.581C70.9537 76.5447 70.9174 76.5084 70.8811 76.5447C70.8448 76.581 70.8448 76.6172 70.8448 76.6535ZM69.72 74.8029C69.7562 74.8392 69.7925 74.8755 69.8288 74.8392C69.8651 74.803 69.8651 74.7667 69.8651 74.7304C69.8288 74.6941 69.7925 74.6578 69.7562 74.6941C69.72 74.6941 69.72 74.7667 69.72 74.8029ZM68.6314 72.9524C68.6677 72.9887 68.7039 73.0249 68.7402 72.9887C68.7765 72.9524 68.8128 72.9161 68.7765 72.8798C68.7402 72.8435 68.704 72.8435 68.6314 72.8435C68.5951 72.8435 68.5951 72.9161 68.6314 72.9524ZM56.9836 79.3387C57.0199 79.375 57.0925 79.3387 57.1288 79.3024C57.1651 79.2661 57.1288 79.1935 57.0925 79.1572C57.0562 79.121 56.9836 79.1573 56.9473 79.1935C56.9111 79.2661 56.9473 79.3024 56.9836 79.3387ZM58.0722 77.1252C58.1085 77.1615 58.1811 77.1253 58.2173 77.089C58.2536 77.0527 58.2174 76.9801 58.1811 76.9438C58.1448 76.9075 58.0722 76.9438 58.0359 76.9801C57.9996 77.0164 57.9996 77.089 58.0722 77.1252ZM67.3251 79.9193C67.3251 79.9555 67.3977 79.9918 67.4339 79.9918C67.4702 79.9556 67.5065 79.9193 67.5065 79.8467C67.4702 79.8104 67.434 79.7741 67.3614 79.7741C67.3251 79.8104 67.2888 79.883 67.3251 79.9193ZM66.4905 77.597C66.5268 77.6332 66.5631 77.6695 66.6357 77.6695C66.6719 77.6332 66.7082 77.597 66.7082 77.5244C66.6719 77.4881 66.6357 77.4518 66.5631 77.4518C66.5268 77.4881 66.4905 77.5244 66.4905 77.597ZM64.8939 72.9161C64.8939 72.9524 64.9665 72.9887 65.0028 72.9887C65.0391 72.9524 65.0754 72.9161 65.0754 72.8435C65.0391 72.8072 65.0028 72.7709 64.9302 72.7709C64.9302 72.8072 64.8939 72.8435 64.8939 72.9161ZM53.6816 75.1295C53.7179 75.1658 53.7905 75.1658 53.8268 75.1295C53.8631 75.0932 53.8631 75.0207 53.8268 74.9844C53.7905 74.9481 53.7179 74.9481 53.6816 74.9844C53.6453 75.0207 53.6453 75.0932 53.6816 75.1295ZM55.5322 73.4967C55.5685 73.533 55.6411 73.533 55.6773 73.4967C55.7136 73.4604 55.7136 73.3878 55.6773 73.3515C55.6411 73.3152 55.5685 73.3152 55.5322 73.3515C55.4959 73.3878 55.4959 73.4604 55.5322 73.4967ZM57.3828 71.8638C57.4191 71.9001 57.4916 71.9001 57.5279 71.8638C57.5642 71.8275 57.5642 71.7549 57.5642 71.7187C57.5279 71.6824 57.4553 71.6824 57.4191 71.7187C57.3465 71.7549 57.3465 71.7912 57.3828 71.8638ZM62.1725 79.375H62.2088C62.2814 79.375 62.3176 79.3387 62.3176 79.2661C62.3176 79.2298 62.2814 79.1572 62.2451 79.1572C62.1725 79.1572 62.1362 79.1935 62.1362 79.2661C62.0999 79.3387 62.1362 79.375 62.1725 79.375ZM62.2451 76.835C62.2451 76.9075 62.2814 76.9438 62.3176 76.9438C62.3902 76.9438 62.4265 76.9075 62.4265 76.835C62.4265 76.7624 62.3902 76.7261 62.3176 76.7261C62.3176 76.7261 62.2451 76.7624 62.2451 76.835ZM62.4265 74.3675C62.4265 74.4401 62.4628 74.4764 62.5354 74.4764C62.6079 74.4764 62.6442 74.4401 62.6442 74.3675C62.6442 74.295 62.6079 74.2587 62.5354 74.2587C62.4628 74.2587 62.4265 74.295 62.4265 74.3675C62.4265 74.3312 62.4265 74.3312 62.4265 74.3675ZM71.0988 76.3633C71.1351 76.3995 71.2077 76.3995 71.244 76.3633C71.2802 76.327 71.2802 76.2544 71.244 76.2181C71.2077 76.1818 71.1351 76.1818 71.0988 76.1818C71.0625 76.2544 71.0625 76.327 71.0988 76.3633ZM69.466 74.5127C69.5022 74.5489 69.5748 74.5489 69.6111 74.5127C69.6474 74.4764 69.6474 74.4038 69.6474 74.3675C69.6111 74.3312 69.5385 74.3312 69.5022 74.3675C69.4297 74.4038 69.4297 74.4764 69.466 74.5127ZM67.8331 72.6621C67.8694 72.6984 67.942 72.6984 67.9782 72.6621C68.0145 72.6258 68.0145 72.5532 67.9782 72.5169C67.942 72.4807 67.8694 72.4807 67.8331 72.5169C67.7968 72.5532 67.7968 72.6258 67.8331 72.6621ZM59.4511 90.0067C59.4511 90.1156 59.5236 90.1881 59.6325 90.1881C59.7414 90.1881 59.8139 90.1156 59.8139 90.0067C59.8139 89.8979 59.7414 89.8253 59.6325 89.8253C59.5236 89.8253 59.4511 89.8979 59.4511 90.0067ZM59.6325 85.7613C59.6325 85.8701 59.7051 85.9427 59.8139 85.9427C59.9228 85.9427 59.9954 85.8701 59.9954 85.7613C59.9954 85.6524 59.9228 85.5798 59.8139 85.5798C59.7051 85.5798 59.6325 85.6524 59.6325 85.7613ZM59.7776 81.5158C59.7776 81.6247 59.8502 81.6973 59.9591 81.6973C60.0679 81.6973 60.1405 81.6247 60.1405 81.5158C60.1405 81.407 60.0679 81.3344 59.9591 81.3344C59.8865 81.3344 59.8139 81.407 59.7776 81.5158ZM60.1405 73.025C60.1405 73.1338 60.2131 73.2064 60.3219 73.2064C60.4308 73.2064 60.5034 73.1338 60.5034 73.025C60.5034 72.9161 60.4308 72.8435 60.3219 72.8435C60.2494 72.8435 60.1405 72.9161 60.1405 73.025ZM76.2514 83.9833C76.324 84.0558 76.4328 84.0558 76.5054 83.9833C76.578 83.9107 76.578 83.8018 76.5054 83.7293C76.4328 83.6567 76.324 83.6567 76.2514 83.7293C76.1788 83.8018 76.1788 83.9107 76.2514 83.9833ZM73.3848 80.8627C73.4574 80.9353 73.5662 80.9353 73.6388 80.8627C73.7114 80.7901 73.7114 80.6812 73.6388 80.6087C73.5662 80.5361 73.4574 80.5361 73.3848 80.6087C73.3123 80.6812 73.3123 80.7901 73.3848 80.8627ZM70.5182 77.7421C70.5908 77.8147 70.6997 77.8147 70.7722 77.7421C70.8448 77.6695 70.8448 77.5607 70.7722 77.4881C70.6997 77.4155 70.5908 77.4155 70.5182 77.4881C70.4457 77.5607 70.4457 77.6695 70.5182 77.7421ZM54.9153 78.4678C54.9879 78.5041 55.0968 78.4678 55.1331 78.3953C55.1693 78.3227 55.1331 78.2138 55.0605 78.1412C54.9879 78.105 54.8791 78.1412 54.8428 78.2138C54.8065 78.3227 54.8428 78.4315 54.9153 78.4678ZM56.7296 74.6215C56.8022 74.6578 56.9111 74.6215 56.9473 74.549C56.9836 74.4764 56.9473 74.3675 56.8748 74.3312C56.8022 74.2949 56.6933 74.3312 56.6571 74.4038C56.5845 74.4764 56.6208 74.5852 56.7296 74.6215ZM58.5076 70.7752C58.5802 70.8115 58.6891 70.7752 58.7254 70.7027C58.7616 70.6301 58.7254 70.5212 58.6528 70.4849C58.5802 70.4487 58.4714 70.485 58.4351 70.5575C58.3625 70.6301 58.3988 70.7027 58.5076 70.7752ZM67.4702 86.8861C67.5065 86.9587 67.6154 87.0313 67.6879 86.995C67.7605 86.9587 67.8331 86.8498 67.7968 86.7773C67.7605 86.7047 67.6517 86.6321 67.5791 86.6684C67.4702 86.7047 67.4339 86.8136 67.4702 86.8861ZM66.0188 82.8947C66.0551 83.0036 66.1639 83.0398 66.2365 83.0036C66.3091 82.9673 66.3817 82.8584 66.3454 82.7858C66.3091 82.677 66.2002 82.6407 66.1277 82.677C66.0188 82.7133 65.9825 82.8221 66.0188 82.8947ZM64.5674 78.9033C64.6037 78.9758 64.7125 79.0484 64.7851 79.0121C64.8939 78.9758 64.9302 78.867 64.8939 78.7944C64.8577 78.6855 64.7488 78.6492 64.6762 78.6855C64.5674 78.7218 64.5311 78.8307 64.5674 78.9033ZM63.1159 74.9118C63.1522 74.9844 63.2611 75.057 63.3337 75.0207C63.4062 74.9844 63.4788 74.8755 63.4425 74.8029C63.4062 74.7304 63.2974 74.6578 63.2248 74.6941C63.1159 74.7304 63.0796 74.8392 63.1159 74.9118ZM53.2462 75.8915C53.3188 75.9278 53.4276 75.8915 53.5002 75.819C53.5365 75.7464 53.5002 75.6375 53.4276 75.565C53.355 75.5287 53.2462 75.565 53.2099 75.6375C53.1373 75.7101 53.1736 75.8189 53.2462 75.8915ZM65.0754 88.5553C65.1117 88.6279 65.2205 88.7004 65.2931 88.6641C65.4019 88.6278 65.4382 88.519 65.4019 88.4464C65.3657 88.3739 65.2931 88.3013 65.1842 88.3376C65.1117 88.3376 65.0391 88.4464 65.0754 88.5553ZM63.8054 84.5276C63.8417 84.6364 63.9505 84.6727 64.0231 84.6364C64.0957 84.6001 64.1682 84.5275 64.1319 84.4187C64.0957 84.3098 63.9868 84.2736 63.9142 84.3098C63.8054 84.3098 63.7691 84.4187 63.8054 84.5276ZM62.4991 80.4998C62.5354 80.6087 62.6442 80.645 62.7168 80.6087C62.8257 80.5724 62.8619 80.4998 62.8257 80.391C62.7894 80.2821 62.7168 80.2458 62.6079 80.2821C62.5354 80.2821 62.4628 80.391 62.4991 80.4998ZM61.2291 76.4358C61.2654 76.5084 61.3379 76.581 61.4468 76.5447C61.5556 76.5084 61.5919 76.4358 61.5556 76.327C61.5194 76.2181 61.4468 76.1818 61.3379 76.2181C61.2654 76.2544 61.1928 76.3632 61.2291 76.4358ZM71.244 73.279C71.3165 73.3152 71.4254 73.279 71.498 73.2064C71.5342 73.1338 71.498 73.0249 71.4254 72.9887C71.3528 72.9524 71.244 72.9887 71.2077 73.0612C71.0988 73.0975 71.1351 73.2064 71.244 73.279ZM56.4393 83.0036C56.4393 83.1124 56.5119 83.185 56.5845 83.185C56.6933 83.185 56.7659 83.1124 56.7659 83.0398C56.7659 82.931 56.6933 82.8584 56.6208 82.8584C56.5119 82.8221 56.4393 82.8947 56.4393 83.0036ZM56.8022 78.7581C56.8022 78.867 56.8748 78.9395 56.9473 78.9395C57.0562 78.9395 57.1288 78.867 57.1288 78.7944C57.1288 78.6855 57.0562 78.613 56.9836 78.613C56.8748 78.613 56.8022 78.6855 56.8022 78.7581ZM57.1288 74.549C57.1288 74.6578 57.2013 74.7304 57.3102 74.7304C57.4191 74.7304 57.4916 74.6578 57.4916 74.5852C57.4916 74.4764 57.4191 74.4038 57.3465 74.4038C57.2376 74.3675 57.1651 74.4401 57.1288 74.549ZM71.5705 82.5318C71.6431 82.6044 71.752 82.6044 71.8245 82.5318C71.8971 82.4593 71.8971 82.3504 71.8608 82.2778C71.7882 82.2053 71.6794 82.2053 71.6068 82.2415C71.498 82.3504 71.498 82.4593 71.5705 82.5318C71.5343 82.5318 71.5705 82.5318 71.5705 82.5318ZM68.8128 79.3024C68.8854 79.375 68.9942 79.375 69.0668 79.3024C69.1394 79.2298 69.1394 79.121 69.1031 79.0484C69.0305 78.9758 68.9217 78.9758 68.8491 79.0121C68.7765 79.121 68.7765 79.2298 68.8128 79.3024ZM63.3699 72.8435C63.4425 72.9161 63.5514 72.9161 63.6239 72.8435C63.6965 72.771 63.6965 72.6621 63.6602 72.5895C63.5876 72.5169 63.4788 72.517 63.4062 72.5532C63.3336 72.6621 63.3337 72.771 63.3699 72.8435ZM53.6453 73.7869C53.7179 73.8232 53.7905 73.7507 53.8268 73.6781C53.8631 73.6055 53.7905 73.533 53.7179 73.4967C53.6453 73.4604 53.5728 73.533 53.5728 73.5692C53.5365 73.7144 53.5728 73.7869 53.6453 73.7869ZM64.3497 81.2618C64.3859 81.3344 64.4585 81.3344 64.5311 81.2981C64.6037 81.2618 64.6037 81.1893 64.5674 81.1167C64.5311 81.0441 64.4585 81.0441 64.3859 81.0441C64.3134 81.153 64.3134 81.2256 64.3497 81.2618ZM62.7531 78.5041C62.7894 78.5767 62.8619 78.5767 62.9345 78.5404C63.0071 78.5041 63.0071 78.4315 62.9708 78.359C62.9345 78.2864 62.8619 78.2864 62.7894 78.3227C62.7531 78.359 62.7168 78.4315 62.7531 78.5041ZM61.1928 75.7464C61.2291 75.819 61.3016 75.819 61.3742 75.7827C61.4468 75.7464 61.4468 75.6738 61.4105 75.6012C61.3742 75.5287 61.3016 75.5287 61.2291 75.565C61.1565 75.6012 61.1565 75.6738 61.1928 75.7464ZM57.6005 81.7336C57.6005 81.8061 57.6731 81.8424 57.7456 81.8424C57.8182 81.8424 57.8545 81.7698 57.8545 81.6973C57.8545 81.6247 57.7819 81.5884 57.7093 81.5884C57.6368 81.5884 57.6005 81.661 57.6005 81.7336ZM57.2013 78.5767C57.2013 78.6493 57.2739 78.6855 57.3465 78.6855C57.4191 78.6855 57.4553 78.613 57.4553 78.5404C57.4553 78.4678 57.3828 78.4315 57.3102 78.4315C57.2376 78.4315 57.2013 78.4678 57.2013 78.5767ZM56.8022 75.3835C56.8022 75.4561 56.8748 75.4924 56.9473 75.4924C57.0199 75.4924 57.0562 75.4198 57.0562 75.3472C57.0562 75.2747 56.9836 75.2384 56.9111 75.2384C56.8385 75.2384 56.7659 75.311 56.8022 75.3835ZM65.7648 73.8958C65.8374 73.9321 65.9099 73.9321 65.9462 73.8595C65.9825 73.787 65.9825 73.7144 65.9099 73.6781C65.8374 73.6418 65.7648 73.6418 65.7285 73.7144C65.6922 73.7507 65.6922 73.8595 65.7648 73.8958ZM56.0039 74.8392C56.0039 74.8755 56.0402 74.9118 56.0765 74.8755C56.1128 74.8755 56.1491 74.8392 56.1128 74.8029C56.1128 74.7667 56.0765 74.7304 56.0402 74.7667C56.0039 74.7667 56.0039 74.803 56.0039 74.8392ZM55.4959 73.1701C55.4959 73.2064 55.5322 73.2427 55.5685 73.2064C55.6048 73.2064 55.6411 73.1701 55.6048 73.1338C55.6048 73.0975 55.5685 73.0612 55.5322 73.0975C55.5322 73.0975 55.4959 73.1338 55.4959 73.1701ZM58.7254 72.4081C58.7616 72.4444 58.7979 72.4444 58.8342 72.4081C58.8705 72.3718 58.8705 72.3355 58.8342 72.2992C58.7979 72.263 58.7616 72.263 58.7254 72.2992C58.6891 72.3355 58.6891 72.3718 58.7254 72.4081ZM57.6368 71.0655C57.6731 71.1018 57.7094 71.1018 57.7456 71.0655C57.7819 71.0292 57.7819 70.9929 57.7456 70.9567C57.7094 70.9204 57.6731 70.9204 57.6368 70.9567C57.6005 70.9929 57.6005 71.0292 57.6368 71.0655ZM58.3262 77.3793C58.3625 77.4155 58.4351 77.4518 58.5076 77.3793C58.5439 77.343 58.5802 77.2704 58.5439 77.2341C58.5076 77.1978 58.4351 77.1615 58.3988 77.1978C58.3262 77.2704 58.2899 77.343 58.3262 77.3793ZM56.5482 75.1295C56.5845 75.1658 56.6571 75.2021 56.6933 75.1658C56.7296 75.1295 56.7659 75.057 56.7296 75.0207C56.6933 74.9844 56.6208 74.9481 56.5482 74.9844C56.5119 75.0207 56.5119 75.0932 56.5482 75.1295ZM54.7339 72.8798C54.7702 72.9161 54.8428 72.9524 54.9153 72.9161C54.9516 72.8798 54.9879 72.8072 54.9516 72.7347C54.9153 72.6984 54.8428 72.6621 54.7702 72.6984C54.6976 72.7709 54.6976 72.8435 54.7339 72.8798ZM58.4351 70.5212C58.4351 70.5575 58.4713 70.5938 58.5076 70.5938C58.5802 70.6301 58.6528 70.5938 58.6891 70.5575C58.6891 70.5212 58.6891 70.4849 58.6891 70.4849C58.6891 70.4487 58.6528 70.4487 58.6528 70.4124C58.5802 70.3761 58.5076 70.4124 58.4714 70.4486C58.4351 70.4486 58.4351 70.4849 58.4351 70.5212Z" fill="white"/>
<defs>
<linearGradient id="paint0_linear" x1="129.221" y1="70.5843" x2="183.146" y2="78.31" gradientUnits="userSpaceOnUse">
<stop stop-color="#E94A47"/>
<stop offset="1" stop-color="#D62929"/>
</linearGradient>
<linearGradient id="paint1_linear" x1="114.445" y1="45.2701" x2="137.168" y2="60.9724" gradientUnits="userSpaceOnUse">
<stop stop-color="#E94A47"/>
<stop offset="1" stop-color="#D62929"/>
</linearGradient>
<linearGradient id="paint2_linear" x1="137.546" y1="62.6544" x2="143.498" y2="67.453" gradientUnits="userSpaceOnUse">
<stop stop-color="#E94A47"/>
<stop offset="1" stop-color="#D62929"/>
</linearGradient>
<linearGradient id="paint3_linear" x1="120.029" y1="52.3514" x2="144.463" y2="62.184" gradientUnits="userSpaceOnUse">
<stop stop-color="#EEEEEE"/>
<stop offset="1" stop-color="#D6D7D8"/>
</linearGradient>
<linearGradient id="paint4_linear" x1="58.785" y1="64.437" x2="71.0524" y2="115.743" gradientUnits="userSpaceOnUse">
<stop stop-color="#23286B"/>
<stop offset="1" stop-color="#151A4F"/>
</linearGradient>
<linearGradient id="paint5_linear" x1="50.1843" y1="59.2677" x2="76.1807" y2="38.1791" gradientUnits="userSpaceOnUse">
<stop offset="0.2587" stop-color="#428DFC"/>
<stop offset="1" stop-color="#1D72D8"/>
</linearGradient>
<linearGradient id="paint6_linear" x1="111.895" y1="54.9466" x2="92.9346" y2="66.9594" gradientUnits="userSpaceOnUse">
<stop offset="0.043" stop-color="#428DFC"/>
<stop offset="1" stop-color="#1D72D8"/>
</linearGradient>
</defs>
</svg>
