<svg width="116" height="204" viewBox="0 0 116 204" fill="none" xmlns="http://www.w3.org/2000/svg">
<path d="M109.237 142.479H12.8488V165.322H109.237V142.479Z" fill="#D62929"/>
<path d="M115.173 165.068H18.7848V180.778H115.173V165.068Z" fill="#428DFC"/>
<path d="M102.615 147.268H12.1125V160.532H102.615V147.268Z" fill="#D6D7D8"/>
<path d="M102.615 148.829H12.1125V150.501H102.615V148.829Z" fill="#EEEEEE"/>
<path d="M102.615 152.173H12.1125V153.845H102.615V152.173Z" fill="#EEEEEE"/>
<path d="M102.615 155.518H12.1125V157.189H102.615V155.518Z" fill="#EEEEEE"/>
<path d="M102.615 158.86H12.1125V160.532H102.615V158.86Z" fill="#EEEEEE"/>
<path d="M114.579 181.119H0.870148V203.962H114.579V181.119Z" fill="#D62929"/>
<path d="M106.766 185.909H0.000976562V199.173H106.766V185.909Z" fill="#D6D7D8"/>
<path d="M106.766 187.469H0.000976562V189.141H106.766V187.469Z" fill="#EEEEEE"/>
<path d="M106.766 190.813H0.000976562V192.485H106.766V190.813Z" fill="#EEEEEE"/>
<path d="M106.766 194.157H0.000976562V195.829H106.766V194.157Z" fill="#EEEEEE"/>
<path d="M106.766 197.502H0.000976562V199.173H106.766V197.502Z" fill="#EEEEEE"/>
<path d="M93.2545 58.0681C93.2545 38.7867 77.5967 23.1565 58.2809 23.1565C38.965 23.1565 23.3077 38.7867 23.3077 58.0681C23.3077 69.0412 29.2375 76.7463 34.8799 85.227C42.5542 96.7615 45.4237 106.072 45.5474 112.04H71.0157C71.4913 105.356 75.0383 93.6139 81.6833 85.227C89.1883 75.7541 93.2545 69.0412 93.2545 58.0681Z" fill="#EBECEC"/>
<path d="M45.2248 127.198H74.9563L73.5092 122.424H43.7772L45.2248 127.198Z" fill="#E94A47"/>
<path d="M67.7813 103.522L44.7142 110.488H69.8918L67.7813 103.522Z" fill="#E94A47"/>
<path d="M48.7819 138.939L75.8021 130.779H46.3089L48.7819 138.939Z" fill="#E94A47"/>
<path d="M41.2454 114.069L42.6925 118.843H72.4245L70.9774 114.069H41.2454Z" fill="#E94A47"/>
<path d="M69.8919 110.488H44.7142L40.5417 111.748L41.2454 114.069H70.9774L69.8919 110.488Z" fill="white"/>
<path d="M43.7771 122.424H73.5092L72.4245 118.843H42.6925L43.7771 122.424Z" fill="white"/>
<path d="M46.3089 130.779H75.8021L76.022 130.713L74.9563 127.198H45.2247L46.3089 130.779Z" fill="white"/>
<path d="M64.2606 133.763H52.3031V145.7H64.2606V133.763Z" fill="#428DFC"/>
<path d="M57.5496 119.067C57.5467 119.067 57.5433 119.067 57.5403 119.067C57.3423 119.061 57.1861 118.897 57.1909 118.698C57.6825 100.124 57.6296 80.7029 52.1993 62.8489C51.7339 62.5516 51.2845 62.2292 50.855 61.8819C48.349 59.8567 42.7818 54.6989 45.2049 50.5513C45.4446 50.1405 45.8168 49.9297 46.2434 49.9535C47.5041 50.0273 48.9367 52.0914 49.3895 53.1273C50.7119 56.1569 51.8426 59.2477 52.8073 62.3846C55.7715 64.2014 59.4009 64.9571 62.8368 64.419C64.1548 64.2126 65.3928 63.8212 66.5036 63.2733C66.8952 61.4419 67.3198 59.6182 67.775 57.8013L67.8444 57.5235C68.3011 55.677 69.0009 52.8922 70.9541 53.3288C71.5375 53.46 71.9805 53.8218 72.2358 54.3759C72.9162 55.8529 72.1455 58.3312 71.4996 59.5473C70.5717 61.2942 69.0402 62.7464 67.134 63.7546C64.7532 74.989 63.5802 86.4658 63.6448 97.9528C63.6462 98.1504 63.4861 98.3117 63.2881 98.3131C63.2876 98.3131 63.2866 98.3131 63.2861 98.3131C63.0886 98.3131 62.929 98.1543 62.9275 97.9571C62.8644 86.6032 64.0039 75.2605 66.3197 64.1485C65.2782 64.606 64.1441 64.9392 62.9484 65.1261C59.6033 65.6482 56.084 65.0042 53.1102 63.385C58.3508 81.1303 58.3954 100.338 57.9096 118.716C57.9033 118.913 57.7437 119.067 57.5496 119.067ZM70.5902 54.0039C69.4551 54.0039 68.9091 56.2088 68.5418 57.696L68.4724 57.9767C68.0686 59.5857 67.6896 61.201 67.3358 62.8217C68.8669 61.9028 70.0947 60.6673 70.8673 59.2127C71.5903 57.8514 72.0703 55.7295 71.5855 54.6766C71.4224 54.323 71.1652 54.1117 70.7984 54.0292C70.7265 54.0117 70.6571 54.0039 70.5902 54.0039ZM46.173 50.6679C46.0672 50.6679 45.9464 50.7058 45.825 50.9127C43.6815 54.5809 48.9445 59.4172 51.3064 61.3258C51.4864 61.471 51.6703 61.6124 51.8576 61.7483C50.9608 58.9266 49.9247 56.1443 48.7334 53.4138C48.2204 52.2395 46.9262 50.7111 46.2041 50.6689C46.1929 50.6679 46.1822 50.6679 46.173 50.6679Z" fill="#428DFC"/>
<path d="M33.1018 25.8015H28.4382V30.4566H33.1018V25.8015Z" fill="#428DFC"/>
<path d="M33.8797 17.1824L30.2556 20.4893L26.9425 16.8716L30.5667 13.5647L33.8797 17.1824Z" fill="#E94A47"/>
<path d="M81.0699 5.5701L75.4896 11.1402L69.9098 5.5701L75.4896 0L81.0699 5.5701Z" fill="#89B3F4"/>
<path d="M78.0408 20.6548L76.2758 17.0721L79.8655 15.3101L81.6304 18.8928L78.0408 20.6548Z" fill="#E94A47"/>
<path d="M80.8171 101.528C80.7821 101.528 80.7467 101.523 80.7123 101.512C80.522 101.454 80.4162 101.254 80.4749 101.065C83.6817 90.6426 92.0049 81.7321 102.197 77.8103C102.382 77.7399 102.589 77.8317 102.66 78.0158C102.731 78.2003 102.639 78.4077 102.455 78.4786C92.4635 82.3221 84.3043 91.0573 81.1597 101.275C81.1126 101.43 80.9709 101.528 80.8171 101.528Z" fill="#23286B"/>
<path d="M71.5122 23.8564C71.4972 23.8564 71.4831 23.8559 71.468 23.8544C71.272 23.8301 71.1312 23.6519 71.155 23.4557C71.5437 20.2571 73.3742 16.685 75.6051 14.7696C77.6457 13.0178 79.5592 12.1887 82.666 11.7089C82.8606 11.6817 83.045 11.8128 83.0751 12.0081C83.1052 12.2028 82.9708 12.3864 82.7752 12.4165C79.7776 12.8793 78.0242 13.637 76.0729 15.312C73.9653 17.1216 72.2353 20.5062 71.8665 23.5421C71.8456 23.7233 71.6908 23.8564 71.5122 23.8564Z" fill="#428DFC"/>
<path d="M62.8901 16.4591C62.8484 16.4591 62.8072 16.4519 62.7649 16.4368C62.5791 16.3678 62.4844 16.1624 62.5534 15.9769C64.1325 11.7137 65.9217 6.88231 64.939 2.19952C64.8983 2.00623 65.022 1.81633 65.2166 1.77553C65.4068 1.73328 65.601 1.85858 65.6412 2.05285C66.6671 6.93767 64.8391 11.872 63.226 16.2255C63.1726 16.3698 63.0352 16.4591 62.8901 16.4591Z" fill="#23286B"/>
<path d="M26.665 35.73C26.5398 35.73 26.4189 35.6649 26.3529 35.5493C23.53 30.6072 19.6875 28.4314 14.2543 28.7121C14.0543 28.7184 13.8874 28.5703 13.8777 28.3726C13.8675 28.175 14.0199 28.0064 14.2179 27.9967C19.9501 27.7043 24.0037 29.9918 26.9765 35.1948C27.075 35.3667 27.0144 35.5852 26.8421 35.6833C26.7863 35.7149 26.7256 35.73 26.665 35.73Z" fill="#A1C3FC"/>
</svg>
