<svg width="186" height="203" viewBox="0 0 186 203" fill="none" xmlns="http://www.w3.org/2000/svg">
<path d="M81.8558 110.279C81.7107 111.799 82.6103 114.735 82.7768 116.635C82.8526 117.5 82.732 119.405 83.1695 120.157C83.8707 121.365 87.7489 120.955 89.1502 120.94C91.5717 120.913 93.7456 120.273 95.9814 119.39C99.5224 117.992 96.7145 116.977 94.5695 116.501C95.547 116.05 99.0549 115.522 99.0261 113.829C98.9909 111.773 95.2055 112.613 94.3048 112.359C95.7455 111.011 97.7327 109.927 97.8362 107.655C97.945 105.242 94.9547 104.729 93.0807 104.749C90.6774 104.776 88.1513 105.592 85.9827 106.627C84.1514 107.501 83.368 109.1 81.8249 110.116C81.7886 110.258 81.6232 110.312 81.8558 110.279Z" fill="#F2A19C"/>
<path d="M86.0798 111.727C83.9369 116.574 82.1995 136.985 74.5956 134.643C75.9584 129.681 77.8783 124.495 79.1099 119.548C80.6584 113.329 80.159 109.14 84.6807 105.114C94.3037 96.545 105.942 103.762 117.687 101.388C117.616 104.811 118.946 107.944 118.326 111.206C113.602 111.46 105.668 107.74 102.184 110.805C95.4521 116.728 97.6035 114.069 93.0754 118.57C89.4042 122.221 84.7757 128.441 85.4576 120.817C85.8322 116.636 90.6069 112.814 92.0903 108.986C88.9837 108.7 86.1364 112.394 86.0798 111.727Z" fill="#FFBEB6"/>
<path d="M95.9184 183.501C100.417 186.307 105.78 187.7 110.414 190.51C113.873 192.608 117.11 194.841 120.684 196.701C125.277 199.091 131.291 202.321 136.429 202.885C152.962 204.701 135.161 184.459 131.467 179.668C129.372 176.95 127.305 174.373 125.184 171.773C124.159 170.517 123.509 169.597 122.235 168.539C121.516 167.942 119.411 165.39 118.701 165.202C117.082 164.775 113.999 167.382 112.476 168.171C109.239 169.844 105.975 171.368 102.777 173.125C99.5309 174.908 96.0518 176.178 93.0497 178.174C95.0988 181.436 92.6613 181.468 95.9184 183.501Z" fill="#428DFC"/>
<path d="M102.117 138.938C82.0362 139.775 67.0686 138.592 53.4382 140.63C39.2807 142.746 12.5535 144.401 16.1916 166.535C21.0026 195.803 80.4984 183.678 99.9856 183.675C107.122 183.674 121.021 184.514 131.563 184.545C134.918 171.725 133.783 153.066 131.56 140.034C121.122 139.506 100.511 139.477 102.117 138.938Z" fill="#151A4F"/>
<path d="M182.292 129.422C182.292 145.649 184.846 168.238 172.722 180.805C160.487 193.486 141.74 186.494 125.978 186.517C110.327 186.54 93.4852 187.935 78.2551 185.778C60.6953 183.289 52.4244 158.459 70.6192 148.435C78.2775 144.217 93.4543 143.156 102.23 142.291C112.687 141.26 124.393 142 134.537 139.348C134.927 134.7 134.558 132.193 133.762 127.875C145.967 132.409 173.988 128.868 182.292 129.422Z" fill="url(#paint0_linear)"/>
<path d="M120.57 42.3887C135.542 41.9972 144.269 47.1457 150.474 51.8187C159.461 58.5877 168.294 65.5844 174.02 75.0559C186.645 95.9385 186.363 118.97 184.107 141.417C171.212 142.277 101.4 140.585 101.4 140.585L101.15 57.0609C101.15 57.0609 104.535 48.4129 107.985 45.6838C110.898 43.3793 114.453 42.5483 120.57 42.3887Z" fill="url(#paint1_linear)"/>
<path d="M88.9645 51.8401C95.8458 54.5447 98.58 57.0323 106.268 61.7489C110.381 64.2726 114.326 63.4331 117.211 59.0049C118.973 56.3024 122.054 51.3347 121.348 47.8927C120.489 43.7028 116.619 42.4973 113.077 40.4492C110.458 38.9341 104.728 33.2163 102.116 32.9843C97.8223 32.6045 88.2516 47.1873 88.9645 51.8401Z" fill="#F2A19C"/>
<path d="M62.9715 28.337C58.3473 43.3816 74.063 54.7087 87.1267 54.8789C95.6217 54.9895 101.381 49.0887 105.207 40.8483C115.913 17.7962 81.3937 1.92171 67.0162 19.9774C65.2682 22.1723 63.8253 24.5226 63.1956 27.2815C62.5959 27.6348 63.3162 29.1775 62.9715 28.337Z" fill="url(#paint2_linear)"/>
<path d="M71.7685 10.4921C78.8334 6.35852 86.9453 4.72107 94.9621 8.39497C117.283 18.624 106.134 42.1974 106.134 42.1974L62.567 28.2125C62.567 28.2125 60.1744 17.276 71.7685 10.4921Z" fill="#23286B"/>
<path d="M83.6637 37.1191C84.8696 33.6176 89.7862 30.0224 93.5268 31.7897C98.1521 33.9761 97.6131 39.5577 96.6612 43.4306C93.0892 41.4431 87.7233 38.7534 83.7362 37.7213C84.0372 37.8192 83.3766 36.984 83.6637 37.1191Z" fill="url(#paint3_linear)"/>
<path d="M96.8671 51.0751C101.875 51.0751 105.934 47.028 105.934 42.0356C105.934 37.0432 101.875 32.9961 96.8671 32.9961C91.8595 32.9961 87.8001 37.0432 87.8001 42.0356C87.8001 47.028 91.8595 51.0751 96.8671 51.0751Z" fill="#A1C3FC"/>
<path d="M110.807 135.474H60.8831V142.744H110.807V135.474Z" fill="#89B3F4"/>
<path d="M0.000976562 91.4094H62.042L76.3458 142.744H14.3048L0.000976562 91.4094Z" fill="#A1C3FC"/>
<path d="M36.3191 123.272C39.262 123.272 41.6477 120.894 41.6477 117.96C41.6477 115.026 39.262 112.647 36.3191 112.647C33.3762 112.647 30.9905 115.026 30.9905 117.96C30.9905 120.894 33.3762 123.272 36.3191 123.272Z" fill="#89B3F4"/>
<path d="M138.744 132.254C137.073 128.737 135.088 125.314 133.364 121.859C132.506 120.141 133.066 119.292 130.887 119.31C129.908 119.317 127.929 120.864 127.003 121.149C127.241 120.879 125.981 121.086 126.278 120.881C121.908 122.471 117.825 123.798 113.62 125.816C111.607 126.782 109.544 127.543 107.518 128.409C106.852 128.27 106.197 128.12 105.491 128.058C103.103 127.848 101.576 128.504 99.3698 129.264C95.3795 130.64 91.3028 130.728 87.9357 133.351C86.5452 137.185 94.8374 136.435 99.2311 136.021C97.8522 138.968 96.6089 141.997 95.1042 144.823C94.3219 146.29 91.8535 149.65 94.514 150.942C96.4425 151.877 96.6719 150.307 97.8117 150.063C100.124 149.567 99.5352 149.67 102.305 150.197C105.554 150.815 107.689 149.575 110.423 149.796C111.773 149.905 112.991 151.314 114.333 150.555C114.92 150.223 115.296 147.339 115.504 146.731C116.125 144.918 116.526 142.893 116.98 140.859C118.877 140.406 120.76 139.976 122.472 139.396C128.132 137.476 133.011 133.75 138.744 132.254Z" fill="url(#paint4_linear)"/>
<path d="M70.1357 51.207C68.0258 51.207 65.6118 49.9164 63.8328 47.8374C62.5222 46.3064 61.6845 44.5221 61.4732 42.8133C61.2512 41.0237 61.7368 39.5225 62.8392 38.5841C63.5553 37.9755 64.4912 37.6531 65.5435 37.6531C67.6544 37.6531 70.0685 38.9437 71.8475 41.0227C73.158 42.5548 73.9958 44.3391 74.2071 46.0478C74.428 47.8374 73.9435 49.3387 72.84 50.2771C72.1239 50.8857 71.189 51.207 70.1357 51.207ZM65.5435 38.7181C64.7367 38.7181 64.059 38.9458 63.5308 39.3937C62.7101 40.0917 62.3547 41.2599 62.5308 42.6825C62.7175 44.1859 63.4678 45.7712 64.6439 47.1459C66.2244 48.994 68.3289 50.142 70.1346 50.142C70.9425 50.142 71.6202 49.9154 72.1474 49.4664C72.9691 48.7684 73.3245 47.6002 73.1474 46.1776C72.9617 44.6742 72.2114 43.0889 71.0354 41.7132C69.4538 39.8661 67.3503 38.7181 65.5435 38.7181Z" fill="#23286B"/>
<path d="M129.99 70.6256C128.595 63.0778 128.97 50.9612 139.609 50.5261C148.315 50.1707 156.739 63.4065 161.035 69.5999C171.461 84.6275 178.63 99.5912 182.492 117.112C168.956 130.46 148.072 141.193 131.215 149.042C126.121 141.08 120.038 132.527 117.096 123.556C130.576 116.265 139.521 112.975 151.17 106.388C146.215 102.57 132.154 82.3336 129.99 70.6256Z" fill="url(#paint5_linear)"/>
<path d="M109.011 42.6761C108.968 42.6761 108.923 42.6708 108.88 42.6591C108.594 42.5868 108.421 42.2973 108.494 42.0122C110.757 33.1621 109.842 24.4205 105.983 18.0281C103.211 13.4349 99.0251 10.3505 93.8801 9.10668C93.5941 9.03752 93.418 8.75025 93.4873 8.46404C93.5578 8.17783 93.8449 8.00334 94.1319 8.0725C99.5608 9.38438 103.975 12.638 106.897 17.4791C110.901 24.113 111.859 33.1504 109.527 42.275C109.467 42.5155 109.249 42.6761 109.011 42.6761Z" fill="#23286B"/>
<path d="M102.991 37.6467L99.9685 36.5923C100.502 35.073 101.036 33.6622 101.547 32.3088C103.138 28.0976 104.513 24.462 104.978 19.8326C105.763 11.9986 101.962 6.40633 95.0775 4.04325C83.8056 0.17464 74.0257 9.24608 74.0257 9.24608C71.9244 10.3164 69.504 11.7507 67.5179 13.685C70.6768 3.45594 84.2987 -2.45338 95.9824 0.980068C104.434 3.46338 109.101 10.808 108.164 20.1497C107.657 25.195 106.215 29.0126 104.543 33.4334C104.04 34.7655 103.515 36.1519 102.991 37.6467Z" fill="#A1C3FC"/>
<path d="M96.8672 48.0365C100.191 48.0365 102.886 45.3499 102.886 42.0357C102.886 38.7216 100.191 36.0349 96.8672 36.0349C93.5429 36.0349 90.8481 38.7216 90.8481 42.0357C90.8481 45.3499 93.5429 48.0365 96.8672 48.0365Z" fill="#B9D3FD"/>
<path d="M151.914 63.0119C151.944 63.097 152.04 63.1417 152.125 63.1098C152.21 63.08 152.255 62.9842 152.224 62.8991C152.194 62.814 152.098 62.7693 152.013 62.8012C151.928 62.8321 151.883 62.9246 151.914 63.0119ZM163.491 75.3135C163.45 75.3976 163.487 75.4987 163.572 75.538C163.648 75.5774 163.741 75.5465 163.78 75.4721C163.784 75.4657 163.786 75.4593 163.789 75.4519C163.829 75.3721 163.797 75.2752 163.717 75.2337C163.633 75.1954 163.531 75.2306 163.491 75.3135ZM158.03 68.7073C157.967 68.7744 157.964 68.8786 158.022 68.9499C158.088 69.0191 158.195 69.0223 158.266 68.9574C158.335 68.8925 158.338 68.785 158.273 68.7148C158.204 68.652 158.101 68.6488 158.03 68.7073ZM137.821 77.4564C137.688 77.5681 137.669 77.7671 137.779 77.9033C137.88 78.0373 138.071 78.065 138.205 77.965C138.21 77.9607 138.214 77.9586 138.219 77.9543C138.353 77.8426 138.372 77.6436 138.262 77.5075C138.154 77.3723 137.957 77.3489 137.821 77.4564ZM143.766 72.6525C143.631 72.7664 143.615 72.9654 143.729 73.0994C143.84 73.2313 144.037 73.2494 144.171 73.1409C144.307 73.0334 144.33 72.8377 144.222 72.7026C144.105 72.5696 143.906 72.5483 143.766 72.6525ZM149.726 67.8455C149.591 67.953 149.569 68.1477 149.677 68.2817C149.679 68.2849 149.682 68.2871 149.684 68.2902C149.786 68.4243 149.977 68.452 150.111 68.352C150.115 68.3477 150.12 68.3456 150.125 68.3413C150.257 68.2264 150.279 68.0274 150.175 67.8859C150.06 67.7551 149.861 67.7359 149.726 67.8455ZM133.365 61.7532C133.419 61.9181 133.596 62.0064 133.762 61.9522C133.927 61.8979 134.016 61.7213 133.961 61.5564C133.908 61.3957 133.735 61.3063 133.572 61.3553C133.406 61.4095 133.314 61.5862 133.365 61.7532ZM140.709 59.5827C140.764 59.7465 140.941 59.8359 141.106 59.7817C141.272 59.7274 141.36 59.5508 141.306 59.3859C141.252 59.2252 141.079 59.1358 140.916 59.1848C140.752 59.238 140.659 59.4156 140.709 59.5827ZM151.643 84.3733C151.563 84.5286 151.621 84.718 151.776 84.801C151.925 84.884 152.113 84.8287 152.197 84.6797C152.197 84.6797 152.199 84.6776 152.198 84.6765C152.287 84.5339 152.243 84.3477 152.102 84.2594C152.095 84.2552 152.088 84.2509 152.08 84.2467C151.923 84.1701 151.733 84.2243 151.643 84.3733ZM155.302 77.6596C155.224 77.816 155.279 78.0054 155.428 78.0958C155.584 78.1756 155.775 78.1171 155.857 77.9628C155.94 77.8107 155.883 77.6202 155.73 77.5383C155.729 77.5372 155.726 77.5362 155.726 77.5362C155.575 77.4532 155.387 77.5075 155.305 77.6553C155.303 77.6585 155.303 77.6596 155.302 77.6596ZM158.955 70.9566C158.872 71.1013 158.92 71.2864 159.066 71.3683C159.07 71.3705 159.075 71.3736 159.079 71.3747C159.228 71.463 159.422 71.4119 159.509 71.2641C159.512 71.2598 159.514 71.2545 159.518 71.2502C159.6 71.096 159.542 70.9034 159.387 70.8214C159.233 70.7395 159.039 70.798 158.957 70.9512C158.957 70.9555 158.956 70.9566 158.955 70.9566ZM131.421 54.5192C131.451 54.6703 131.598 54.7703 131.751 54.7427C131.903 54.7139 132.004 54.5671 131.975 54.4139C131.946 54.2618 131.799 54.1617 131.645 54.1905C131.495 54.2213 131.395 54.3671 131.421 54.5192ZM147.362 78.215C147.279 78.3501 147.314 78.5246 147.444 78.6161C147.568 78.7012 147.739 78.6693 147.823 78.5459C147.825 78.5416 147.827 78.5395 147.83 78.5353C147.919 78.4086 147.888 78.2331 147.761 78.1458C147.76 78.1448 147.758 78.1448 147.757 78.1426C147.628 78.0607 147.455 78.0916 147.362 78.215ZM151.184 72.577C151.099 72.7057 151.136 72.8781 151.263 72.9622C151.387 73.0473 151.557 73.0154 151.642 72.8919C151.644 72.8877 151.646 72.8856 151.648 72.8813C151.738 72.7547 151.707 72.5791 151.581 72.4897C151.58 72.4887 151.578 72.4887 151.576 72.4866C151.443 72.4078 151.269 72.4472 151.184 72.577ZM155.009 66.9156C154.919 67.0422 154.95 67.2178 155.076 67.3071L155.08 67.3103C155.199 67.3976 155.365 67.3699 155.453 67.2518C155.458 67.2454 155.463 67.2369 155.468 67.2284C155.557 67.1018 155.526 66.9262 155.4 66.8369C155.399 66.8358 155.397 66.8358 155.396 66.8337C155.266 66.756 155.096 66.7911 155.009 66.9156ZM139.639 65.409C139.512 65.4994 139.48 65.6729 139.567 65.8016C139.653 65.9304 139.824 65.9665 139.954 65.8814C140.082 65.7931 140.121 65.6207 140.041 65.4877C139.952 65.3569 139.773 65.3228 139.639 65.409ZM145.346 61.65C145.219 61.7287 145.177 61.8947 145.255 62.0213C145.259 62.0256 145.262 62.0298 145.264 62.0351C145.349 62.1639 145.521 62.2001 145.65 62.1149C145.778 62.0266 145.818 61.8543 145.738 61.7213C145.65 61.5957 145.475 61.5627 145.346 61.65ZM161.098 80.3472C161.066 80.4908 161.156 80.6334 161.3 80.6664C161.305 80.6675 161.312 80.6696 161.316 80.6696C161.467 80.7047 161.618 80.61 161.654 80.46C161.654 80.4568 161.655 80.4525 161.656 80.4504C161.681 80.2972 161.58 80.1525 161.429 80.1206C161.28 80.0897 161.132 80.1855 161.101 80.3344C161.098 80.3387 161.099 80.3429 161.098 80.3472ZM162.459 73.6633C162.429 73.8165 162.525 73.9676 162.68 74.0017C162.836 74.0283 162.984 73.9261 163.012 73.7708C163.038 73.6229 162.944 73.4803 162.798 73.4441C162.649 73.408 162.498 73.4995 162.462 73.6474C162.46 73.6516 162.459 73.658 162.459 73.6633ZM126.021 59.355C125.876 59.4625 125.84 59.6625 125.94 59.8136C126.04 59.9625 126.242 60.003 126.391 59.904C126.539 59.7987 126.575 59.5955 126.473 59.4454C126.372 59.2965 126.171 59.256 126.021 59.355ZM132.562 54.947C132.413 55.047 132.372 55.2481 132.471 55.397C132.571 55.546 132.773 55.5864 132.923 55.4875C133.072 55.3874 133.113 55.1863 133.013 55.0374C132.913 54.8874 132.711 54.848 132.562 54.947ZM153.626 77.8011C153.597 77.9809 153.713 78.1522 153.891 78.1916C154.071 78.2203 154.24 78.0969 154.268 77.9171C154.296 77.7437 154.18 77.5809 154.01 77.5447C153.834 77.5149 153.664 77.6266 153.626 77.8011ZM155.119 70.0756C155.089 70.2512 155.201 70.4193 155.376 70.4586C155.553 70.4937 155.725 70.3788 155.76 70.2022C155.795 70.0256 155.68 69.8543 155.503 69.8192C155.327 69.7873 155.157 69.9022 155.119 70.0756ZM139.562 67.9221C139.471 68.0753 139.513 68.2732 139.657 68.3786C139.809 68.4711 140.009 68.4254 140.106 68.2764C140.208 68.1317 140.171 67.9317 140.024 67.8317C140.024 67.8317 140.02 67.8295 140.018 67.8274C139.867 67.7274 139.663 67.77 139.562 67.9221ZM143.913 61.3478C143.813 61.5 143.856 61.7032 144.008 61.8032L144.009 61.8043C144.156 61.9 144.355 61.8585 144.45 61.7106C144.548 61.5617 144.508 61.3606 144.36 61.2627C144.213 61.1638 144.013 61.2031 143.913 61.3478ZM134.442 66.1634C134.342 66.3102 134.381 66.5113 134.53 66.6124C134.678 66.7134 134.879 66.6741 134.98 66.5251C135.077 66.3815 135.044 66.1868 134.903 66.0846C134.753 65.9793 134.548 66.0155 134.442 66.1634ZM139.041 59.8029C138.938 59.9508 138.973 60.1562 139.121 60.2604C139.266 60.3594 139.465 60.3275 139.573 60.1902C139.675 60.0391 139.643 59.8359 139.5 59.7242C139.351 59.6231 139.149 59.6593 139.041 59.8029ZM150.6 69.2085C150.563 69.3851 150.674 69.5596 150.85 69.6C151.023 69.6394 151.195 69.5319 151.235 69.3595C151.282 69.1914 151.184 69.0169 151.015 68.9691C151.011 68.968 151.007 68.9659 151.001 68.9669C150.826 68.9201 150.648 69.0244 150.602 69.1989C150.601 69.2021 150.6 69.2053 150.6 69.2085Z" fill="white"/>
<defs>
<linearGradient id="paint0_linear" x1="60.387" y1="158.147" x2="182.517" y2="158.147" gradientUnits="userSpaceOnUse">
<stop stop-color="#23286B"/>
<stop offset="1" stop-color="#151A4F"/>
</linearGradient>
<linearGradient id="paint1_linear" x1="109.455" y1="78.5623" x2="156.959" y2="126.211" gradientUnits="userSpaceOnUse">
<stop stop-color="#428DFC"/>
<stop offset="1" stop-color="#1D72D8"/>
</linearGradient>
<linearGradient id="paint2_linear" x1="92.2203" y1="41.9883" x2="81.745" y2="29.3073" gradientUnits="userSpaceOnUse">
<stop stop-color="#FFBEB6"/>
<stop offset="1" stop-color="#F8AFA9"/>
</linearGradient>
<linearGradient id="paint3_linear" x1="93.2569" y1="39.8417" x2="83.0929" y2="27.5376" gradientUnits="userSpaceOnUse">
<stop stop-color="#FFBEB6"/>
<stop offset="1" stop-color="#F8AFA9"/>
</linearGradient>
<linearGradient id="paint4_linear" x1="101.66" y1="141.584" x2="117.644" y2="132.498" gradientUnits="userSpaceOnUse">
<stop stop-color="#FFBEB6"/>
<stop offset="1" stop-color="#F8AFA9"/>
</linearGradient>
<linearGradient id="paint5_linear" x1="120.638" y1="91.9926" x2="185.858" y2="123.818" gradientUnits="userSpaceOnUse">
<stop stop-color="#428DFC"/>
<stop offset="1" stop-color="#1D72D8"/>
</linearGradient>
</defs>
</svg>
