<?xml version="1.0" encoding="UTF-8"?><svg version="1.1" id="Layer_1" xmlns="http://www.w3.org/2000/svg" xmlns:xlink="http://www.w3.org/1999/xlink" x="0px" y="0px" viewBox="0 0 48.725 48.767" style="enable-background:new 0 0 48.725 48.767;" xml:space="preserve" width="49px" height="49px">
<g>
	<path style="fill:#E75353;" d="M1.092,23.434l17-21.5c1.8-2.2,5-2.6,7.2-0.8l21.5,17c2.2,1.8,2.6,5,0.8,7.2l-17,21.5
		c-1.8,2.2-5,2.6-7.2,0.8l-21.5-17C-0.308,28.934-0.608,25.734,1.092,23.434z"/>
	<g>
		<path style="fill:#F6D586;" d="M21.592,42.434c-0.2-4.5-1.9-8.9-4.8-12.4c0.3-0.5,0.7-1,1.1-1.4c1.3-1.3,3-2.3,4.9-2.7
			c0.1,3.9,1.4,7.7,3.8,10.8c0.2,0.3,0.6,0.7,1,1.2c-0.7,3.5-0.2,7.1,1.5,10.3c0.3-0.1,0.5-0.3,0.8-0.5c-1.4-2.7-1.9-5.8-1.4-8.8
			c0.4,0.5,1,0.9,1.6,1.1c0.8,0.1,3.5-1.1,4.1-1.6c1.6-1.5,0.9-5.6,0.2-7.3c-0.5-1.2-1.2-2.4-2.1-3.3c0.1-0.2,0.2-0.4,0.3-0.5
			c1.9-3.7,3.9-7.4,5.1-11.4c0.1-0.3,0.1-0.5,0.2-0.8c2.3,2.3,4.3,4.9,6,7.7c0.9,1.5,1.7,3.1,2.4,4.7l0.7-0.9
			c-2.4-4.6-5.3-8.9-8.9-12.6c0.2-0.7,0.3-1.5,0.4-2.2l-0.9-0.7c0,0.7-0.1,1.4-0.2,2.1c-0.2-0.2-0.3-0.3-0.5-0.5
			c-1.3-1.3-2.4-2.8-3.2-4.4c0.1,0,0.1-0.1,0.2-0.1l-2-1.6c-0.5,0.3-1.1,0.7-1.6,1c-0.9,0.7-1.7,1.5-2.4,2.4
			c-1.2,0.3-2.4,0.5-3.6,0.6c-1.6,0-5.2-0.7-5.7-2.7c-0.4-1.4,1.7-4.1,2.3-5.3c0.3-0.6-0.6-1.1-0.9-0.5c-0.6,1.2-1.2,2.3-1.7,3.5
			c-0.4,0.6-0.7,1.3-0.9,2c0,0.9,1.2,2,1.8,2.5c2.2,1.8,5.2,1.8,7.8,1.2c-1,1.5-1.8,3.1-2.4,4.8c-1.1,2.9-1.7,6-1.8,9.1
			c-1.4,0.3-2.7,0.9-3.9,1.7c-1,0.7-2,1.6-2.7,2.7c-0.9-1.1-1.9-2.1-2.9-3c0.2-2.8,0.1-5.6-0.4-8.4c-0.4-2.4-0.9-4.8-1.5-7.1l-0.8,1
			c0.7,2.7,1.2,5.4,1.5,8.2c0.2,1.9,0.3,3.7,0.2,5.6c-0.7-0.6-1.4-1.1-2.1-1.6c-2-1.4-4.1-2.6-6.3-3.6l-0.6,0.8
			c3.2,1.5,6.2,3.4,9,5.6c-0.4,3.4-1.6,6.6-4.2,8.8l0.7,0.6c1.4-1.2,2.5-2.7,3.2-4.4c0.6-1.3,1-2.7,1.2-4.2c0.2,0.2,0.4,0.3,0.5,0.5
			c0.7,0.7,1.4,1.4,2,2.2c-1.9,3.6-1.8,8,0.2,11.5l3.2,2.5c0.8-0.4,1.6-0.9,2.3-1.3C21.492,42.734,21.592,42.634,21.592,42.434z
			 M25.992,34.234c-1.5-2.6-2.3-5.5-2.3-8.5c2.6-0.4,5.3,0.3,7.2,2.1c-1.4,2.8-2.5,5.8-3.2,8.9
			C27.092,35.934,26.492,35.134,25.992,34.234L25.992,34.234z M32.492,29.634c1.1,1.8,2.1,4.9,1.2,7c-0.7,1.6-2.7,2.4-4.3,1.6l0,0
			c-0.3-0.2-0.5-0.4-0.8-0.6c0.7-3.1,1.7-6.2,3.1-9.1C31.992,28.934,32.192,29.234,32.492,29.634L32.492,29.634z M29.692,9.134
			c0.7-0.8,1.6-1.4,2.5-2c0.1,0.2,0.1,0.4,0.2,0.6C31.492,8.234,30.592,8.734,29.692,9.134L29.692,9.134z M25.292,16.434
			c0.7-2.1,1.8-4.1,3.2-5.9c1.5-0.5,2.9-1.2,4.2-2c0.7,1.4,1.7,2.8,2.8,4c0.5,0.5,1,1.1,1.5,1.6c-1.1,4.5-3.5,8.8-5.6,12.9
			c-2.1-1.8-4.9-2.6-7.7-2.2C23.792,21.834,24.292,19.034,25.292,16.434L25.292,16.434z M19.392,42.834c-1.6,0.9-2.1-0.4-2.9-1.8
			c-0.6-1.2-1-2.5-1.2-3.8c-0.3-2.1,0-4.3,1-6.2c0.8,1.1,1.5,2.2,2.1,3.3C19.392,36.234,21.992,41.334,19.392,42.834L19.392,42.834z
			"/>
	</g>
</g>
</svg>