<?xml version="1.0" encoding="UTF-8"?><svg version="1.1" id="Layer_1" xmlns="http://www.w3.org/2000/svg" xmlns:xlink="http://www.w3.org/1999/xlink" x="0px" y="0px" viewBox="0 0 65.456 62.208" style="enable-background:new 0 0 65.456 62.208;" xml:space="preserve" width="66px" height="63px">
<g>
	<path style="fill:#5C8CD7;" d="M29.438,1.952l35,44.4c1.6,2.1,1.3,5.1-0.8,6.7c-0.7,0.5-1.4,0.9-2.3,1l-55.9,8.1
		c-2.6,0.4-5-1.4-5.4-4.1c-0.1-0.8,0-1.7,0.3-2.5l20.9-52.5c1-2.5,3.8-3.7,6.2-2.7C28.137,0.752,28.837,1.352,29.438,1.952z"/>
	<path style="fill:#392D40;" d="M39.537,14.852c-8.6,2-17.1,4.2-25.6,6.6l-0.9,2.3c9.3-2.6,18.6-5,27.9-7.2L39.537,14.852z"/>
	<path style="fill:#392D40;" d="M58.837,39.252c-9.4,5.8-18.4,12.2-27.1,19.1l4-0.6c7.8-6.1,16-11.7,24.4-16.9L58.837,39.252z"/>
	<path style="fill:#392D40;" d="M29.137,33.252c5.8-3.2,11.7-6.3,17.6-9.3l-1.3-1.6c-6.9,3.6-13.8,7.2-20.7,11
		c-6.9,3.9-13.8,7.9-20.5,12.1l-1.2,3.1c1.6-1,3.2-2,4.8-3C14.837,41.352,21.938,37.252,29.137,33.252z"/>
	<path style="fill:#392D40;" d="M55.738,35.352c-18.6,6.2-37,12.9-55.3,20l-0.1,0.4c-0.3,0.6-0.4,1.3-0.3,2
		c18.9-7.3,37.9-14.2,57.1-20.6L55.738,35.352z"/>
	<path style="fill:#392D40;" d="M32.438,5.852c-4.8,1.6-9.5,3.2-14.3,4.8l-1,2.4c3.7-1.3,7.4-2.5,11.2-3.8
		c-3.9,1.8-7.9,3.6-11.8,5.5l-1.1,2.7c6.4-3,12.8-5.9,19.2-8.8L32.438,5.852z"/>
</g>
</svg>