<svg width="960" height="514" viewBox="0 0 960 514" fill="none" xmlns="http://www.w3.org/2000/svg">
<path d="M914.774 205.543L940.617 194.066L952.201 219.721L926.356 231.196L914.774 205.543Z" fill="#A1C3FC"/>
<path d="M73.8008 302.222L99.6446 290.745L111.228 316.4L85.3832 327.875L73.8008 302.222Z" fill="#A1C3FC"/>
<path d="M787.565 359.353L839.133 336.456L862.244 387.643L810.675 410.541L787.565 359.353Z" fill="#E94A47"/>
<path d="M774.625 461.672C775.156 461.067 775.985 460.735 776.85 460.861C842.913 470.735 912.966 432.417 939.819 371.737C940.369 370.494 941.819 369.939 943.065 370.486C944.315 371.029 944.879 372.472 944.328 373.708C916.622 436.342 844.303 475.89 776.112 465.705C774.768 465.501 773.84 464.257 774.041 462.926C774.116 462.438 774.324 462.014 774.625 461.672Z" fill="#3259B2"/>
<path d="M734.192 42.3064C734.236 42.256 734.276 42.2106 734.326 42.1645C735.516 40.9762 737.457 40.9613 738.654 42.1447C782.514 85.2643 787.567 162.52 749.691 210.846C748.73 212.281 746.723 212.407 745.392 211.376C744.057 210.35 743.813 208.435 744.855 207.111C780.918 161.087 776.109 87.5221 734.351 46.4647C733.192 45.3226 733.141 43.5025 734.192 42.3064Z" fill="#3259B2"/>
<path d="M96.7513 82.7998C94.0026 87.6733 93.4507 93.7094 95.7753 99.2497C99.7871 108.805 110.865 113.327 120.472 109.327L183.483 83.0929C188.121 81.1626 191.732 77.5314 193.653 72.8814C195.575 68.2264 195.566 63.1225 193.63 58.5097C189.618 48.9542 178.54 44.4326 168.933 48.432L105.921 74.6662C101.887 76.3488 98.7435 79.2689 96.7513 82.7998ZM187.871 72.2862C186.458 74.7916 184.23 76.8625 181.368 78.0526L118.357 104.287C115.073 105.655 111.437 105.661 108.118 104.307C104.798 102.952 102.215 100.409 100.845 97.1422C97.9998 90.3635 101.225 82.5486 108.038 79.7083L171.05 53.4753C174.334 52.1074 177.97 52.1011 181.289 53.4557C184.609 54.8105 187.191 57.3536 188.561 60.6199C190.213 64.5497 189.819 68.8303 187.871 72.2862Z" fill="#A6BFFF"/>
<path d="M85.1626 397L82.8772 493.402L175.171 459.956L85.1626 397ZM88.6676 485.379L90.5113 407.55L163.178 458.376L88.6676 485.379Z" fill="#E94A47"/>
<path d="M521.563 11.7694C492.938 5.27963 464.327 23.1781 457.783 51.6662C451.239 80.1543 469.203 108.612 497.826 115.102C526.449 121.591 555.062 103.693 561.606 75.205C568.15 46.7169 550.187 18.2592 521.563 11.7694ZM499.075 109.666C473.464 103.859 457.391 78.3974 463.246 52.9074C469.102 27.4175 494.702 11.4036 520.313 17.2101C545.924 23.0166 561.996 48.4786 556.141 73.9686C550.286 99.4585 524.687 115.473 499.075 109.666Z" fill="#E94A47"/>
<path d="M650.242 88.8612C644.751 87.6164 638.782 88.4505 633.647 91.6636C628.671 94.7766 625.21 99.6298 623.901 105.329C622.591 111.03 623.591 116.895 626.715 121.843C633.163 132.059 646.766 135.142 657.036 128.717C662.012 125.605 665.473 120.752 666.782 115.051C668.091 109.352 667.091 103.487 663.968 98.538C660.743 93.4308 655.731 90.1057 650.242 88.8612ZM641.314 127.724C636.801 126.7 632.682 123.968 630.031 119.769C627.464 115.701 626.642 110.882 627.718 106.196C628.794 101.512 631.64 97.5222 635.729 94.964C644.172 89.6838 655.353 92.2188 660.653 100.615C663.221 104.682 664.041 109.503 662.965 114.187C661.889 118.873 659.043 122.862 654.955 125.42C650.733 128.06 645.828 128.747 641.314 127.724Z" fill="#F1B505"/>
<path d="M199.242 174.861C193.751 173.616 187.782 174.451 182.647 177.664C177.671 180.777 174.21 185.63 172.901 191.329C171.591 197.03 172.591 202.895 175.715 207.843C182.163 218.059 195.766 221.142 206.036 214.717C211.012 211.605 214.473 206.752 215.782 201.051C217.091 195.352 216.091 189.487 212.968 184.538C209.743 179.431 204.731 176.106 199.242 174.861ZM190.314 213.724C185.801 212.7 181.682 209.968 179.031 205.769C176.464 201.701 175.642 196.882 176.718 192.196C177.794 187.512 180.64 183.522 184.729 180.964C193.172 175.684 204.353 178.219 209.653 186.615C212.221 190.682 213.041 195.503 211.965 200.187C210.889 204.873 208.043 208.862 203.955 211.42C199.733 214.06 194.828 214.747 190.314 213.724Z" fill="#FFBD12"/>
<path d="M291.436 55L326.684 91.5627L289.914 126.668L254.665 90.1049L291.436 55Z" fill="#FFD55A"/>
<path d="M78.6876 230.531L0.000976562 218.061L49.3807 167.119L78.6876 230.531Z" fill="#D9E021"/>
<path d="M861.501 47C841.343 47 825.001 63.3416 825.001 83.5C825.001 103.658 841.343 120 861.501 120C881.659 120 898.001 103.658 898.001 83.5C898.001 63.3416 881.659 47 861.501 47Z" fill="#2E7FE9"/>
</svg>
