<svg width="960" height="514" viewBox="0 0 960 514" fill="none" xmlns="http://www.w3.org/2000/svg">
<path d="M45.2272 205.543L19.3835 194.066L7.79985 219.721L33.6448 231.196L45.2272 205.543Z" fill="#A1C3FC"/>
<path d="M886.2 302.222L860.356 290.745L848.773 316.4L874.618 327.875L886.2 302.222Z" fill="#A1C3FC"/>
<path d="M172.436 359.353L120.868 336.456L97.7571 387.643L149.326 410.541L172.436 359.353Z" fill="#E94A47"/>
<path d="M185.376 461.672C184.845 461.068 184.016 460.735 183.151 460.861C117.088 470.735 47.0348 432.417 20.1823 371.738C19.6321 370.494 18.1823 369.939 16.9359 370.486C15.686 371.029 15.1221 372.472 15.6727 373.708C43.3786 436.342 115.698 475.89 183.889 465.705C185.233 465.501 186.161 464.257 185.96 462.926C185.885 462.438 185.677 462.015 185.376 461.672Z" fill="#3259B2"/>
<path d="M225.809 42.3064C225.765 42.2561 225.725 42.2107 225.675 42.1646C224.485 40.9763 222.544 40.9614 221.347 42.1448C177.487 85.2644 172.434 162.52 210.31 210.846C211.271 212.281 213.278 212.408 214.609 211.376C215.944 210.35 216.188 208.435 215.146 207.111C179.083 161.088 183.892 87.5222 225.65 46.4648C226.809 45.3227 226.86 43.5026 225.809 42.3064Z" fill="#3259B2"/>
<path d="M863.25 82.7997C865.998 87.6732 866.55 93.7093 864.226 99.2496C860.214 108.805 849.136 113.327 839.529 109.327L776.518 83.0928C771.88 81.1625 768.269 77.5312 766.348 72.8813C764.426 68.2263 764.435 63.1224 766.371 58.5096C770.383 48.9541 781.461 44.4325 791.068 48.4319L854.08 74.6661C858.114 76.3487 861.257 79.2688 863.25 82.7997ZM772.13 72.286C773.543 74.7915 775.771 76.8623 778.633 78.0524L841.644 104.287C844.928 105.655 848.564 105.661 851.883 104.307C855.203 102.952 857.786 100.409 859.156 97.1421C862.001 90.3634 858.776 82.5484 851.963 79.7082L788.951 53.4752C785.667 52.1073 782.031 52.101 778.712 53.4556C775.392 54.8104 772.81 57.3535 771.44 60.6197C769.788 64.5495 770.182 68.8302 772.13 72.286Z" fill="#A6BFFF"/>
<path d="M874.838 397L877.124 493.402L784.83 459.956L874.838 397ZM871.333 485.379L869.49 407.549L796.823 458.376L871.333 485.379Z" fill="#E94A47"/>
<path d="M438.438 11.7695C467.063 5.27974 495.674 23.1782 502.218 51.6663C508.762 80.1545 490.798 108.612 462.175 115.102C433.552 121.591 404.939 103.693 398.395 75.2051C391.851 46.717 409.814 18.2593 438.438 11.7695ZM460.926 109.666C486.537 103.859 502.61 78.3975 496.755 52.9075C490.899 27.4176 465.299 11.4037 439.688 17.2102C414.077 23.0167 398.004 48.4787 403.86 73.9687C409.715 99.4586 435.314 115.473 460.926 109.666Z" fill="#E94A47"/>
<path d="M309.759 88.8613C315.25 87.6165 321.219 88.4506 326.354 91.6637C331.33 94.7767 334.791 99.6299 336.1 105.329C337.41 111.03 336.41 116.895 333.286 121.843C326.838 132.059 313.235 135.142 302.965 128.717C297.989 125.605 294.528 120.752 293.219 115.051C291.91 109.352 292.91 103.487 296.033 98.5382C299.258 93.4309 304.27 90.1058 309.759 88.8613ZM318.687 127.724C323.2 126.7 327.319 123.968 329.969 119.769C332.537 115.701 333.359 110.882 332.283 106.196C331.207 101.512 328.361 97.5223 324.272 94.9641C315.829 89.6839 304.648 92.2189 299.348 100.615C296.78 104.682 295.96 109.503 297.036 114.187C298.112 118.873 300.958 122.862 305.046 125.42C309.268 128.06 314.173 128.747 318.687 127.724Z" fill="#F1B505"/>
<path d="M760.759 174.861C766.25 173.617 772.219 174.451 777.354 177.664C782.33 180.777 785.791 185.63 787.1 191.329C788.41 197.03 787.41 202.895 784.286 207.843C777.838 218.059 764.235 221.142 753.965 214.717C748.989 211.605 745.528 206.752 744.219 201.051C742.91 195.352 743.91 189.487 747.033 184.538C750.258 179.431 755.27 176.106 760.759 174.861ZM769.687 213.724C774.2 212.7 778.319 209.968 780.969 205.769C783.537 201.701 784.359 196.882 783.283 192.196C782.207 187.512 779.361 183.522 775.272 180.964C766.829 175.684 755.648 178.219 750.348 186.615C747.78 190.682 746.96 195.503 748.036 200.187C749.112 204.873 751.958 208.862 756.046 211.42C760.268 214.06 765.173 214.747 769.687 213.724Z" fill="#FFBD12"/>
<path d="M668.565 55L633.317 91.5627L670.087 126.668L705.336 90.1049L668.565 55Z" fill="#FFD55A"/>
<path d="M881.313 230.531L960 218.061L910.62 167.119L881.313 230.531Z" fill="#D9E021"/>
</svg>
