<svg width="55" height="57" viewBox="0 0 55 57" fill="none" xmlns="http://www.w3.org/2000/svg">
<path d="M8.04229 51.9106C7.61821 52.0548 7.31821 52.4344 7.27595 52.8803C7.23368 53.3262 7.45702 53.7554 7.84645 53.9767C8.95897 54.6089 10.4149 54.9008 11.9557 55.0135C13.5191 55.1278 15.2872 55.0646 17.1031 54.9039C20.7332 54.5828 24.6848 53.859 27.7902 53.287C41.4114 50.7778 53.3058 41.9462 53.3058 27.5841C53.3058 13.3784 41.7898 1.86237 27.5841 1.86237C13.3784 1.86237 1.86237 13.3784 1.86237 27.5841C1.86237 30.1239 2.79606 32.8644 3.95707 35.4891C4.70794 37.1866 5.60088 38.9318 6.45004 40.5915C6.90756 41.4857 7.35237 42.355 7.7554 43.1787C8.95302 45.6262 9.77995 47.6663 9.88559 49.2097C9.93619 49.9491 9.81232 50.4765 9.56722 50.8643C9.32691 51.2446 8.88595 51.6237 8.04229 51.9106Z" fill="#FFB400" stroke="#222222" stroke-width="2.27526" stroke-linejoin="round"/>
<path d="M37.1533 30.637C36.7804 29.6333 36.2044 28.7538 35.4329 28.0087C34.6995 27.2773 33.794 26.6674 32.7408 26.1659C31.7302 25.6612 30.5576 25.1634 29.228 24.6709L29.205 24.6627C28.593 24.4508 28.0285 24.251 27.5112 24.0631C27.0681 23.872 26.6739 23.6747 26.3264 23.4725C26.0461 23.2754 25.8612 23.0859 25.7423 22.914L24.8069 23.5615L25.7423 22.914C25.6811 22.8256 25.6181 22.6765 25.6181 22.4009C25.6181 21.9587 25.7546 21.7855 25.9539 21.6609L25.9539 21.661L25.9642 21.6544C26.2847 21.4493 26.9889 21.2535 28.2888 21.2535C29.4134 21.2535 30.3088 21.3893 31.0028 21.6273C31.0149 21.6314 31.0271 21.6354 31.0393 21.6391C31.8539 21.888 32.5748 22.1778 33.2066 22.5046C33.4969 22.6548 33.8376 22.6728 34.1421 22.5543C34.4466 22.4357 34.6854 22.1919 34.7977 21.885L36.4298 17.4239C36.6233 16.8949 36.4006 16.304 35.9062 16.0343C35.0147 15.548 33.9174 15.1217 32.6358 14.7447C31.2714 14.3434 29.6951 14.1544 27.9261 14.1544C26.4086 14.1544 25.0111 14.3467 23.7462 14.749C22.4912 15.1241 21.3878 15.6832 20.4596 16.4427L21.1799 17.3232L20.4596 16.4427C19.5286 17.2043 18.8064 18.139 18.2996 19.2351C17.7844 20.325 17.5397 21.533 17.5397 22.8362C17.5397 24.1282 17.7684 25.303 18.2764 26.319L18.2763 26.3191L18.2826 26.3313C18.756 27.2503 19.3735 28.0519 20.134 28.7279L20.1521 28.7437C20.8862 29.369 21.7098 29.8942 22.6178 30.3215C22.6262 30.3254 22.6346 30.3293 22.6431 30.333C23.4908 30.707 24.3398 31.0442 25.19 31.3442L25.2088 31.3507C27.0776 31.9736 28.2684 32.5225 28.8943 32.9724L28.9138 32.9861C29.4297 33.3408 29.5813 33.6901 29.5813 34.0798C29.5813 34.3475 29.5396 34.5571 29.4757 34.7232C29.4438 34.8063 29.3758 34.9167 29.214 35.0461C29.0414 35.1603 28.7617 35.2892 28.3343 35.4073C27.9464 35.4974 27.3961 35.5536 26.6567 35.5536C25.1361 35.5536 23.8973 35.4038 22.9179 35.1289C21.8866 34.8073 21.0471 34.461 20.385 34.0978C20.0925 33.9375 19.7445 33.9135 19.4328 34.0323C19.1212 34.151 18.8774 34.4006 18.7658 34.7149L17.17 39.2123C16.9859 39.7312 17.1997 40.3074 17.6777 40.5805C18.0569 40.7972 18.5025 41.0191 19.0084 41.2468L19.0271 41.255C19.5891 41.4958 20.2286 41.7166 20.94 41.9198L20.9399 41.9198L20.95 41.9226C21.7065 42.1313 22.5511 42.2969 23.4791 42.4228C24.4418 42.5779 25.5025 42.6527 26.6567 42.6527C30.0835 42.6527 32.8598 41.9955 34.7913 40.4901L34.7914 40.4901L34.7994 40.4837C36.7497 38.935 37.6959 36.7623 37.6959 34.116C37.6959 32.8149 37.5276 31.645 37.1533 30.637Z" fill="white" stroke="#222222" stroke-width="2.27526" stroke-linejoin="round"/>
</svg>
